<svg preserveAspectRatio="none" width="100%" height="100%" overflow="visible" style="display: block;" viewBox="0 0 266 33" fill="none" xmlns="http://www.w3.org/2000/svg">
<path id="Torn polygon" d="M0.0164355 1.55445L7.31249 30.4454C7.48739 31.1583 8.98658 31.7029 10.8106 31.7128L262.399 32.9999C264.448 33.0098 266.072 32.3365 265.997 31.5345L263.599 7.33661C263.524 6.66334 262.25 6.09899 260.575 5.99998L258.452 5.87127C255.728 5.71285 254.479 4.43563 256.203 3.58415C258.077 2.66336 256.453 1.29703 253.479 1.28712L37.0214 0.227722C35.7221 0.227722 34.4978 0.504949 33.8731 0.960393L31.8742 2.38613C30.6748 3.24751 27.6515 3.36633 26.0274 2.61385L21.5298 0.504949C20.8552 0.188118 19.8807 0 18.8313 0H3.56452C1.46565 0 -0.183456 0.72277 0.0164355 1.55445Z" fill="var(--fill-0, #1AADB4)"/>
</svg>
