<svg preserveAspectRatio="none" width="100%" height="100%" overflow="visible" style="display: block;" viewBox="0 0 184 163" fill="none" xmlns="http://www.w3.org/2000/svg">
<g id="Layer_1" clip-path="url(#clip0_0_7)">
<path id="Vector" d="M69.2583 121.377C91.7501 124.528 92.9317 101.369 92.9317 101.369C92.9317 101.369 91.5898 98.0573 82.1565 92.5384C72.7232 87.0194 40.3174 73.9545 40.3174 73.9545C40.3174 73.9545 39.0556 73.4528 37.3332 72.7504C37.3332 72.7504 31.0243 38.3121 29.6223 21.7753C29.1015 15.7947 28.1802 8.10831 27.2189 0.743004C27.0787 -0.340719 25.4564 -0.180167 25.5365 0.923625C27.4792 25.6486 30.5436 60.8896 32.8068 70.2217C26.2575 60.6287 17.365 47.303 12.5582 38.8539C9.59398 33.636 5.54826 27.0534 1.58266 20.7718C1.00184 19.8486 -0.400145 20.6715 0.120591 21.6348C12.5782 43.8912 30.7639 75.7607 36.1916 82.0825C41.5591 96.1709 53.9567 119.23 69.2583 121.377Z" fill="var(--fill-0, #4CADB6)"/>
<path id="Vector_2" d="M90.9886 121.257C109.695 118.327 108.333 106.305 105.209 104.639C103.106 103.516 100.021 102.873 98.0385 102.532C97.1373 102.392 96.2961 103.034 96.216 103.957C95.8755 108.252 91.8698 115.035 89.4264 118.848C88.6853 119.992 89.6467 121.477 91.0086 121.257H90.9886Z" fill="var(--fill-0, #4CADB6)"/>
<path id="Vector_3" d="M118.187 107.871C116.104 106.747 113.02 106.105 111.037 105.783C110.116 105.643 109.274 106.285 109.194 107.228C108.834 111.523 104.868 118.246 102.425 122.059C101.684 123.223 102.665 124.729 104.027 124.508C122.673 121.558 121.311 109.556 118.187 107.891V107.871Z" fill="var(--fill-0, #4CADB6)"/>
<path id="Vector_4" d="M131.826 111.082C129.683 109.938 126.519 109.275 124.536 108.974C123.695 108.834 122.894 109.456 122.834 110.299C122.553 114.674 118.367 121.678 115.904 125.471C115.203 126.535 116.104 127.919 117.366 127.739C136.313 124.869 134.931 112.767 131.806 111.082H131.826Z" fill="var(--fill-0, #4CADB6)"/>
<path id="Vector_5" d="M143.583 121.919C142.181 120.534 139.437 118.146 137.675 116.621C137.154 116.179 136.333 116.54 136.353 117.243C136.573 123.384 129.583 127.558 125.738 129.405C125.037 129.746 125.197 130.809 125.978 130.91C141.52 133.037 145.626 123.946 143.583 121.939V121.919Z" fill="var(--fill-0, #4CADB6)"/>
<path id="Vector_6" d="M152.556 128.963C151.394 127.819 149.311 125.973 147.609 124.508C146.747 123.765 145.405 124.287 145.265 125.411C144.745 130.087 140.098 133.519 136.513 135.506C135.271 136.188 135.692 138.074 137.094 138.175C150.853 139.218 154.498 130.89 152.556 128.963Z" fill="var(--fill-0, #4CADB6)"/>
<path id="Vector_7" d="M181.717 159.066C180.535 157.782 179.373 156.478 178.152 155.233C176.389 153.427 174.527 151.741 172.644 150.056C169.98 147.687 167.256 145.379 164.553 143.051C164.272 142.811 163.932 142.63 163.551 142.59C162.85 142.49 162.189 142.67 161.568 142.951C160.687 143.332 160.467 144.015 160.947 144.858C161.128 145.199 161.388 145.5 161.588 145.821C163.05 148.189 164.472 150.557 165.834 152.986C166.916 154.912 168.077 156.779 169.079 158.745C169.5 159.548 169.9 160.351 170.401 161.114C171.222 162.378 172.323 163.06 173.886 163C175.708 162.94 177.511 162.96 179.333 162.94C180.235 162.94 181.136 162.86 181.977 162.458C182.838 162.037 183.079 161.354 182.678 160.491C182.438 159.97 182.137 159.488 181.757 159.066H181.717Z" fill="var(--fill-0, #4CADB6)"/>
<path id="Vector_8" d="M183.199 149.835C182.678 148.851 181.877 148.129 180.976 147.487C178.993 146.102 176.91 144.898 174.827 143.654C172.183 142.088 169.419 140.723 166.655 139.379C166.115 139.118 165.634 139.218 165.193 139.68C164.773 140.121 164.693 140.623 164.973 141.165C165.173 141.566 165.474 141.867 165.794 142.168C168.498 144.617 171.262 146.985 174.026 149.373C176.209 151.26 178.332 153.206 180.375 155.253C180.775 155.655 181.176 156.056 181.717 156.277C182.217 156.498 182.818 156.377 183.199 155.976C183.639 155.514 183.76 154.912 183.9 154.17C183.94 154.009 183.94 153.708 183.96 153.407C184.04 152.143 183.76 150.959 183.179 149.855L183.199 149.835Z" fill="var(--fill-0, #4CADB6)"/>
<path id="Vector_9" d="M163.05 140.904C163.651 140.503 164.092 140.001 164.212 139.198C164.312 138.636 164.152 138.074 163.872 137.532C163.471 136.77 162.85 136.188 162.209 135.666C161.068 134.743 159.866 133.92 158.624 133.137C157.483 132.435 156.321 131.773 155.059 131.271C154.699 131.131 154.478 131.271 154.418 131.652C154.378 131.853 154.418 132.054 154.418 132.254C154.538 133.699 154.358 135.084 153.817 136.429C153.597 136.991 153.277 137.492 153.016 138.034C152.816 138.456 152.856 138.656 153.237 138.917C153.817 139.359 154.418 139.78 155.019 140.202C156.221 141.024 157.503 141.707 158.844 142.269C159.105 142.369 159.365 142.369 159.606 142.229C160.046 141.988 160.507 141.847 160.967 141.727C161.709 141.546 162.43 141.305 163.07 140.864L163.05 140.904Z" fill="var(--fill-0, #4CADB6)"/>
<path id="Vector_10" d="M98.9799 126.214C97.2174 124.869 95.2947 124.247 93.0715 124.628C92.3905 124.749 91.7296 124.909 91.0486 125.05C88.6252 125.531 86.1818 125.993 83.7583 126.495C82.8971 126.675 82.0359 126.816 81.1547 126.996C79.7527 125.311 78.0102 124.247 75.7671 124.126C75.0861 124.086 74.3851 124.106 73.7041 124.066C71.2206 123.986 68.7572 123.886 66.2736 123.805C64.3109 123.745 62.3481 123.585 60.3653 123.665C58.8832 123.725 57.4612 124.006 56.0792 124.869C55.7788 125.03 55.4183 125.311 55.0578 125.612C54.1165 126.394 53.3754 127.358 52.5743 128.301C50.8919 130.288 49.2296 132.274 47.5472 134.261C47.2668 134.602 47.0465 134.964 46.9463 135.405C46.7861 136.128 47.4871 137.151 48.4685 136.81C48.7889 136.69 49.0894 136.569 49.3497 136.348C49.9105 135.887 50.3511 135.305 50.8118 134.743C52.374 132.816 53.8962 130.89 55.4383 128.963C56.1794 128.02 57.0807 127.297 58.2423 126.896C59.0835 126.615 59.9447 126.535 60.8259 126.475C62.9089 126.334 64.9718 126.495 67.0147 126.776C70.1992 127.197 73.3637 127.699 76.5482 128.18C75.6669 128.562 74.8458 129.083 74.0646 129.846C73.8043 130.067 73.5039 130.428 73.2235 130.809C72.4824 131.793 71.9817 132.897 71.4209 133.98C70.2392 136.308 69.0576 138.616 67.8759 140.944C67.6756 141.346 67.5354 141.747 67.5354 142.209C67.5354 142.951 68.4567 143.794 69.338 143.232C69.6184 143.051 69.8787 142.851 70.099 142.57C70.5397 141.988 70.8401 141.326 71.1605 140.683C72.2421 138.456 73.2835 136.228 74.345 134C74.8658 132.917 75.5668 131.993 76.6082 131.351C77.3493 130.89 78.1905 130.609 79.0317 130.368C81.0145 129.766 83.0774 129.445 85.1403 129.244C89.0058 128.863 92.8712 128.582 96.7367 128.301C97.7181 128.221 98.6594 127.96 99.5807 127.639C100.021 127.478 100.041 127.257 99.7409 126.916C99.5206 126.675 99.2603 126.454 98.9999 126.254L98.9799 126.214Z" fill="var(--fill-0, #4CADB6)"/>
<path id="Vector_11" d="M56.4197 119.29C56.9605 119.39 57.2809 119.049 57.2008 118.507C57.1407 118.126 56.9204 117.805 56.6801 117.524C56.1794 116.962 55.6586 116.42 55.0979 115.918C53.756 114.734 52.2739 113.751 50.8118 112.747C49.8104 112.045 48.7088 111.543 47.4871 111.383C46.7861 111.282 46.0851 111.383 45.4042 111.483C44.1824 111.664 42.9607 111.563 41.739 111.423C40.7175 111.302 39.6961 111.182 38.7147 111.182C38.194 111.222 37.8335 111.363 37.6132 111.644C37.1926 112.165 37.2326 112.908 37.7934 113.47C38.7748 114.473 39.9364 115.176 41.2984 115.537C42.6803 115.918 44.0623 116.279 45.4442 116.621C48.2482 117.323 51.0321 118.005 53.8361 118.688C54.6973 118.888 55.5585 119.109 56.4197 119.27V119.29Z" fill="var(--fill-0, #4CADB6)"/>
<path id="Vector_12" d="M37.8735 103.997C39.9765 105.583 42.3198 106.707 44.7232 107.73C45.0236 107.871 45.3641 107.951 45.7046 107.951C46.0451 107.951 46.1853 107.77 46.1051 107.429C46.0851 107.329 46.0451 107.208 46.005 107.108C45.6445 106.225 45.264 105.342 44.9034 104.459C44.583 103.696 44.0222 103.215 43.2411 102.954C42.5201 102.713 41.779 102.472 41.018 102.291C39.9164 102.031 38.8148 101.77 37.6933 101.83C37.5531 101.83 37.4129 101.83 37.2727 101.87C36.9322 101.91 36.6918 102.271 36.772 102.613C36.812 102.793 36.8921 102.954 37.0123 103.114C37.2526 103.455 37.5531 103.756 37.8935 103.997H37.8735Z" fill="var(--fill-0, #4CADB6)"/>
</g>
<defs>
<clipPath id="clip0_0_7">
<rect width="184" height="163" fill="white"/>
</clipPath>
</defs>
</svg>
