<svg preserveAspectRatio="none" width="100%" height="100%" overflow="visible" style="display: block;" viewBox="0 0 103.67 94.34" fill="none" xmlns="http://www.w3.org/2000/svg">
<g id="Layer_1" clip-path="url(#clip0_0_4)">
<path id="Vector" d="M63.89 2.69C63.89 2.69 63.86 2.68 63.85 2.67C63.57 2.56 63.33 2.33 63.16 2.06C62.46 0.98 61.3 1.06 60.51 1.44C60.22 1.58 59.92 1.61 59.61 1.56C56.94 1.04 50.65 0.05 46.42 0.88C46.25 0.91 46.08 0.92 45.92 0.89C42.21 0.3 41.22 -0.37 40.86 0.27C40.56 0.81 40.12 1.24 39.57 1.32C33.75 2.21 19.14 4.65 16.7 5.05C16.47 5.09 16.23 5.07 16 5L12.14 3.76C11.38 3.52 10.58 3.9 10.19 4.69C9.74 5.59 9.38 6.89 9.87 8.33C10.18 9.23 10.5 9.88 10.79 10.36C11.27 11.13 12.13 11.41 12.88 11.03L16.82 9.03C17.08 8.9 17.35 8.84 17.63 8.87C20.59 9.14 38.36 10.7 44.85 9.93C45 9.91 45.15 9.92 45.3 9.95C46.6 10.21 53.34 11.4 58.5 9.57C61.43 8.53 63.28 7.14 64.39 6.03C65.36 5.06 65.09 3.19 63.89 2.68V2.69Z" fill="var(--fill-0, #B6BF51)"/>
<path id="Vector_2" d="M102.59 19.12C102.59 19.12 102.56 19.11 102.55 19.1C102.27 18.99 102.03 18.76 101.86 18.49C101.16 17.41 100 17.49 99.21 17.87C98.92 18.01 98.62 18.04 98.31 17.99C95.64 17.47 89.35 16.48 85.12 17.31C84.95 17.34 84.78 17.35 84.62 17.32C80.91 16.73 79.92 16.06 79.56 16.7C79.26 17.24 78.82 17.67 78.27 17.75C72.45 18.64 57.84 21.08 55.4 21.48C55.17 21.52 54.93 21.5 54.7 21.43L50.84 20.19C50.08 19.95 49.28 20.33 48.89 21.12C48.44 22.02 48.08 23.32 48.57 24.76C48.88 25.66 49.2 26.31 49.49 26.79C49.97 27.56 50.83 27.84 51.58 27.46L55.52 25.46C55.78 25.33 56.05 25.27 56.33 25.3C59.29 25.57 77.06 27.13 83.55 26.36C83.7 26.34 83.85 26.35 84 26.38C85.3 26.64 92.04 27.83 97.2 26C100.13 24.96 101.98 23.57 103.09 22.46C104.06 21.49 103.79 19.62 102.59 19.11V19.12Z" fill="var(--fill-0, #B6BF51)"/>
<path id="Vector_3" d="M54.25 85.83C54.25 85.83 54.22 85.82 54.21 85.81C53.93 85.7 53.69 85.47 53.52 85.2C52.82 84.12 51.66 84.2 50.87 84.58C50.58 84.72 50.28 84.75 49.97 84.7C47.3 84.18 41.01 83.19 36.78 84.02C36.61 84.05 36.44 84.06 36.28 84.03C32.57 83.44 31.58 82.77 31.22 83.41C30.92 83.95 30.48 84.38 29.93 84.46C24.11 85.35 9.5 87.79 7.06 88.19C6.83 88.23 6.59 88.21 6.36 88.14L2.5 86.9C1.74 86.66 0.94 87.04 0.55 87.83C0.1 88.73 -0.26 90.03 0.23 91.47C0.54 92.37 0.86 93.02 1.15 93.5C1.63 94.27 2.49 94.55 3.24 94.17L7.18 92.17C7.44 92.04 7.71 91.98 7.99 92.01C10.95 92.28 28.72 93.84 35.21 93.07C35.36 93.05 35.51 93.06 35.66 93.09C36.96 93.35 43.7 94.54 48.86 92.71C51.79 91.67 53.64 90.28 54.75 89.17C55.72 88.2 55.45 86.33 54.25 85.82V85.83Z" fill="var(--fill-0, #B6BF51)"/>
</g>
<defs>
<clipPath id="clip0_0_4">
<rect width="103.67" height="94.34" fill="white"/>
</clipPath>
</defs>
</svg>
