<svg preserveAspectRatio="none" width="100%" height="100%" overflow="visible" style="display: block;" viewBox="0 0 77.274 51.4343" fill="none" xmlns="http://www.w3.org/2000/svg">
<g id="Layer_1">
<path id="Vector" d="M75.9658 25.0577C73.1665 21.1057 69.5428 18.1763 65.5756 15.5937C64.7684 15.0737 63.841 13.4097 62.8106 14.935C60.1315 18.9043 57.8473 23.099 57.8645 28.3337C57.126 32.2683 58.0363 36.255 59.5132 40.051C60.1486 41.6977 60.2517 44.6963 63.7552 43.5003C67.9456 42.0617 71.3804 39.583 74.5919 36.619C77.5286 33.9323 78.1469 28.1257 75.983 25.0577H75.9658Z" fill="var(--fill-0, #F68F66)"/>
<path id="Vector_2" d="M30.6439 33.811C30.0428 30.6217 30.4206 27.3977 30.6267 24.191C30.9015 19.6497 33.1856 15.9577 35.1778 12.127C32.2582 10.2203 29.2013 8.50433 25.6806 7.94967C24.0663 7.68967 22.3317 7.01367 20.8204 8.20967C18.7423 9.82167 18.2615 13.9297 19.8243 16.0617C20.3739 16.8243 20.4426 17.379 19.3778 17.7777C18.2786 18.1937 16.8704 18.4883 16.235 19.3377C14.1397 22.111 14.758 25.543 14.6206 28.7323C14.5691 29.911 14.9641 31.3843 16.5097 31.9043C18.2615 32.511 18.2615 33.5683 17.626 35.215C16.0976 39.2017 16.1663 43.587 22.2802 43.7083C25.1482 43.7603 27.9304 43.6737 30.4721 42.5123C31.2621 42.1483 33.7008 42.807 32.8936 40.7963C31.9834 38.5083 31.0904 36.255 30.6439 33.8457V33.811Z" fill="var(--fill-0, #F68F66)"/>
<path id="Vector_3" d="M11.7869 21.903C12.6284 19.927 13.676 18.3843 10.911 17.2577C10.4302 17.067 10.0523 16.6337 9.58865 16.3737C7.49343 15.143 5.39821 14.1203 3.13126 16.0963C0.744083 18.159 0.417779 20.9497 0.314735 24.1043C-0.0459171 26.115 -0.355048 28.6283 0.932996 30.5003C3.47474 34.175 5.77604 34.331 9.84626 32.355C12.0617 31.2803 12.2678 29.7723 11.5121 27.8483C10.6878 25.7857 11.0141 23.6883 11.7869 21.8857V21.903Z" fill="var(--fill-0, #F68F66)"/>
<path id="Vector_4" d="M56.6967 41.0737C54.361 36.567 53.3821 31.8697 54.2065 26.739C54.756 23.3243 55.6491 20.1523 57.6584 17.3443C58.7232 15.8537 60.475 14.5363 60.8013 12.907C61.3336 10.2377 59.6678 7.94967 57.8473 5.991C55.3915 3.32167 52.1113 2.05633 48.8997 0.669667C44.5547 -1.21967 39.8663 1.06833 39.5571 5.28033C39.3682 7.88033 39.5228 10.463 37.96 12.8897C36.878 14.5883 36.5345 16.7723 35.8476 18.7137C34.0271 23.8617 33.9584 29.131 34.4565 34.5217C34.8343 38.5257 37.2386 42.1657 36.2941 46.915C36.2254 47.747 36.5002 49.1683 37.4104 50.1563C39.1278 52.011 44.2456 51.7337 47.4743 50.0523C51.0293 48.1977 53.8115 44.731 58.2767 44.7483C58.3454 44.7483 58.5171 44.4017 58.4656 44.2977C57.8817 43.2057 57.2463 42.1483 56.6795 41.0563L56.6967 41.0737Z" fill="var(--fill-0, #F68F66)"/>
</g>
</svg>
