<svg preserveAspectRatio="none" width="100%" height="100%" overflow="visible" style="display: block;" viewBox="0 0 1440 210.904" fill="none" xmlns="http://www.w3.org/2000/svg">
<g id="Co bien">
<path id="Vector" d="M290.249 111.479C289.33 118.043 287.317 124.323 286.463 130.865C285.676 136.992 284.735 143.074 285.085 149.288C285.26 152.242 285.763 155.021 286.967 157.712C288.673 161.542 289.877 165.546 290.818 169.615C291.146 170.994 291.474 172.504 289.877 173.182C288.257 173.882 287.076 172.788 286.266 171.497C283.772 167.559 282.022 163.27 280.731 158.806C279.286 153.84 278.017 148.807 275.72 144.125C275.632 143.971 275.632 143.753 275.523 143.621C269.79 136.838 269.506 127.473 264.714 120.384C261.213 115.22 260.644 109.466 259.266 103.799C256.859 93.821 254.08 83.9529 249.945 74.5005C248.632 71.4809 248.26 68.1988 247.341 65.048C247.144 64.3916 247.013 63.407 247.866 63.1444C248.96 62.7943 249.988 66.711 250.295 67.7612C250.448 68.2645 255.765 78.8328 257.559 82.1149C260.557 87.607 263.598 93.1209 264.648 99.4225C264.714 99.8601 264.955 100.276 265.195 100.67C265.37 100.954 265.699 101.151 266.421 101.807C266.618 98.7879 266.814 96.2279 266.902 93.6679C267.23 84.6968 267.733 75.7258 269.024 66.8204C269.199 65.5732 269.571 64.3479 270.009 63.1444C270.294 62.3567 270.534 61.197 271.716 61.3721C272.657 61.5253 272.678 62.5536 272.919 63.3195C273.904 66.3828 273.247 69.4679 272.963 72.5093C272.35 79.0516 272.766 85.5721 273.182 92.0925C273.663 99.6194 274.407 107.124 273.16 114.63C272.547 118.349 273.641 121.828 274.67 125.307C275.435 127.911 276.158 130.537 276.945 133.162C277.23 134.081 277.295 135.372 278.586 135.35C280.162 135.329 279.965 133.819 280.052 132.856C280.468 129.071 280.731 125.263 281.124 121.478C281.89 113.907 282.569 106.293 284.757 98.9411C285.085 97.8252 284.757 96.7968 284.428 95.7465C283.378 92.3769 282.328 88.9854 281.321 85.5939C281.059 84.7406 280.752 83.756 281.671 83.0995C282.612 82.4431 283.444 83.0558 284.144 83.6028C285.588 84.7406 287.01 85.7909 288.826 86.316C289.658 86.5567 290.139 87.3225 290.358 88.1321C291.846 93.821 295.084 98.7442 297.622 103.952C302.874 114.783 304.996 126.27 305.696 138.173C306.178 146.05 306.703 153.949 306.659 161.848C306.637 167.034 306.221 172.176 304.952 177.23C304.537 178.937 303.793 180.468 302.983 182C302.589 182.722 302.152 183.532 301.189 183.422C300.182 183.313 300.051 182.35 299.898 181.562C299.11 177.821 298.804 174.014 298.607 170.206C298.104 159.594 297.797 148.982 297.272 138.37C296.857 129.683 294.953 121.303 291.583 113.273C291.321 112.638 291.277 111.807 290.183 111.435L290.249 111.479Z" fill="var(--fill-0, #05A181)"/>
<path id="Vector_2" d="M63.5872 151.542C62.9308 147.582 62.8652 144.278 62.7777 140.996C62.5151 131.478 63.9592 121.85 62.0775 112.463C59.7363 100.801 64.1343 89.8608 64.9876 78.5704C65.5127 71.8093 66.9131 65.092 68.7511 58.5059C69.1887 56.9086 69.5169 55.2019 71.0704 53.6703C72.0988 57.8714 71.6393 61.7442 71.4643 65.5733C71.0923 73.7567 69.32 81.765 67.7008 89.7733C66.1035 97.6941 64.5281 105.549 64.9438 113.754C65.6659 127.955 65.9285 142.155 68.5323 156.203C69.1449 159.463 69.2106 162.898 68.401 166.224C68.0728 167.537 67.5039 168.587 66.0816 168.981C64.6375 169.375 63.631 168.653 62.712 167.69C61.6836 166.618 61.0929 165.283 60.5021 163.949C58.0296 158.347 56.4979 152.461 55.0319 146.553C54.3317 143.687 53.741 143.6 51.5529 145.569C49.6712 147.254 48.9491 149.267 48.8397 151.827C48.599 158.172 48.6865 164.539 47.2205 170.775C46.761 172.723 46.3453 174.692 45.3169 176.421C44.6386 177.558 43.7196 178.477 42.2536 178.302C40.7439 178.127 40.1531 176.989 39.8468 175.698C39.2122 173.095 39.2341 170.469 39.5842 167.843C40.0875 164.145 40.8752 160.448 42.4506 157.078C44.9012 151.892 45.12 146.597 44.026 141.149C42.5381 133.731 41.9254 126.226 42.1224 118.678C42.1661 116.686 41.7066 114.958 40.4594 113.361C38.6433 111.019 37.7462 108.262 37.3743 105.33C36.4553 98.3724 33.939 91.7863 32.4292 84.9596C31.7072 81.6775 30.9414 78.4173 30.3068 75.1133C30.1755 74.3912 29.8036 73.2972 30.8101 72.969C31.554 72.7064 32.0573 73.6035 32.473 74.1724C35.5801 78.2641 37.8119 82.8153 39.3216 87.7165C40.9627 93.0991 42.6037 98.4818 44.3104 103.843C44.6167 104.783 44.573 106.381 45.9952 106.271C47.2205 106.184 47.3081 104.696 47.68 103.689C48.6647 100.954 48.2271 98.1098 48.2052 95.3091C48.1176 84.7407 48.9272 74.2818 51.3997 63.976C51.7061 62.6632 52.2531 61.3941 52.7563 60.1251C52.9533 59.6218 53.2596 59.0091 53.8941 59.1404C54.5068 59.2717 54.5505 59.95 54.6162 60.4751C55.4477 68.2428 55.7102 76.0323 55.5133 83.8655C55.207 95.9217 52.822 107.781 52.1874 119.815C51.6842 129.333 55.2726 137.561 59.6925 145.591C60.699 147.429 61.3117 149.573 63.6748 151.542H63.5872Z" fill="var(--fill-0, #05A181)"/>
<path id="Vector_3" d="M369.128 132.878C365.868 142.593 364.38 152.374 360.026 161.257C359.479 162.373 359.26 164.474 357.597 163.97C356.153 163.555 356.612 161.564 356.722 160.295C357.706 148.873 360.07 137.692 362.673 126.555C364.468 118.918 366.765 111.479 370.157 104.411C370.857 102.945 371.863 101.654 372.804 100.298C373.176 99.7727 373.701 99.3132 374.423 99.5758C375.167 99.8603 375.255 100.604 375.08 101.195C372.695 109.291 376.283 116.971 376.655 124.87C377.005 132.309 377.399 139.727 376.699 147.166C375.692 157.822 374.642 168.456 375.714 179.177C376.064 182.766 376.174 186.442 375.495 190.03C375.298 191.102 375.123 192.196 374.751 193.203C374.139 194.822 373.373 196.879 371.513 196.835C369.413 196.77 368.494 194.713 368.056 192.787C366.568 186.508 367.137 180.184 367.618 173.839C368.34 163.97 370.594 154.277 370.507 144.344C370.463 140.624 369.806 136.948 369.172 132.856L369.128 132.878Z" fill="var(--fill-0, #05A181)"/>
<path id="Vector_4" d="M417.069 96.9501C418.206 102.683 418.907 108.437 419.016 114.236C419.103 119.312 419.016 124.388 418.95 129.465C418.907 133.206 418.6 136.904 417.244 140.449C416.697 141.849 416.762 143.315 416.762 144.759C416.806 152.199 413.611 158.238 408.71 163.533C408.469 163.795 408.207 164.058 407.944 164.299C404.006 167.887 402.124 171.979 403.174 177.58C404.181 182.919 403.896 188.433 403.196 193.859C403.087 194.756 402.956 195.654 402.693 196.529C402.43 197.448 401.818 198.17 400.811 198.279C399.673 198.41 398.93 197.732 398.47 196.769C397.31 194.406 397.289 191.824 397.289 189.308C397.289 185.129 397.857 180.972 398.733 176.88C399.477 173.423 399.389 170.075 398.47 166.662C396.566 159.551 395.079 152.374 394.51 145C394.225 141.28 394.685 137.736 396.282 134.388C397.595 131.587 398.011 128.721 397.682 125.657C396.741 116.708 396.107 107.759 397.245 98.7661C397.507 96.6 397.989 94.4775 398.47 92.3551C398.601 91.7206 398.579 90.6922 399.564 90.7578C400.264 90.8016 400.417 91.6112 400.527 92.2457C402.037 100.473 403.459 108.766 403.218 117.124C402.89 128.086 403.371 139.048 403.021 150.011C402.934 152.505 403.721 155.021 404.137 157.537C404.312 158.588 404.794 159.047 405.756 158.15C408.032 156.006 409.892 153.686 410.22 150.339C410.92 143.293 412.386 136.401 414.18 129.53C416.565 120.45 416.303 110.997 416.171 101.654C416.15 100.057 415.865 98.4379 417.069 96.9938V96.9501Z" fill="var(--fill-0, #05A181)"/>
<path id="Vector_5" d="M0.286672 82.0493C0.417956 78.0671 0.54924 74.0629 0.724285 70.0806C0.746165 69.3367 0.54924 68.2208 1.70891 68.177C2.58414 68.177 2.69354 69.1616 2.8467 69.8399C5.12229 81.1303 8.01053 92.3989 8.07617 103.952C8.14181 113.273 9.32337 122.55 8.57943 131.893C8.20746 136.401 9.80474 140.843 10.483 145.328C11.9709 155.152 12.7149 164.977 10.2861 174.779C9.58593 177.602 8.66695 180.359 7.15719 182.875C6.50077 183.991 5.53802 185.063 4.13766 184.866C2.60602 184.669 2.71542 183.138 2.56226 182.044C1.49011 174.21 1.14002 166.333 0.943091 158.456C0.54924 142.352 0.0897467 126.226 0.00222422 110.078C-0.041537 100.735 0.57112 91.4142 0.89933 82.0712H0.286672V82.0493Z" fill="var(--fill-0, #05A181)"/>
<path id="Vector_6" d="M233.075 178.521C233.009 179.637 233.25 180.687 232.156 181.081C231.149 181.431 230.405 180.731 229.771 180.096C226.773 177.055 225.001 173.248 223.403 169.397C220.515 162.482 218.787 155.284 218.502 147.735C218.218 139.88 215.636 132.418 214.17 124.76C213.579 121.719 212.791 118.743 211.872 115.811C209.64 108.722 209.925 101.26 208.809 94.018C208.284 90.6484 207.562 87.4757 209.794 84.1061C210.997 82.29 210.384 79.3361 210.8 76.9292C211.128 75.0038 211.281 72.0499 213.185 71.9405C214.695 71.8748 214.432 74.96 214.607 76.6448C215.154 82.0493 215.526 87.4976 215.855 92.924C216.205 98.4598 216.992 103.908 217.933 109.378C221.894 132.003 228.852 153.971 232.746 176.617C232.878 177.339 233.009 178.04 233.096 178.543L233.075 178.521Z" fill="var(--fill-0, #077850)"/>
<path id="Vector_7" d="M194.149 61.5472C195.593 72.9908 199.969 83.6904 198.81 95.134C198.087 102.18 197.694 109.225 197.234 116.271C196.556 126.555 199.466 136.401 200.823 146.444C202.113 156.05 205.461 165.086 207.452 174.473C207.759 175.895 207.934 177.339 207.715 178.805C207.584 179.681 207.08 180.337 206.161 180.468C205.155 180.622 204.63 179.921 204.411 179.112C204.039 177.711 203.798 176.289 203.558 174.845C201.304 162.307 197.3 150.229 194.04 137.976C191.742 129.355 190.714 120.515 189.97 111.676C188.635 95.7685 190.014 79.9926 192.858 64.3261C193.011 63.4946 192.902 62.4881 194.236 61.5691L194.149 61.5472Z" fill="var(--fill-0, #05A181)"/>
<path id="Vector_8" d="M151.132 100.911C151.591 109.685 150.475 119.246 149.315 128.808C148.681 134.082 148.965 139.311 149.228 144.562C149.469 149.113 149.447 153.665 148.44 158.106C147.937 160.382 147.499 163.489 144.742 163.489C141.767 163.489 141.351 160.251 141.023 157.91C140.235 152.221 140.498 146.51 141.132 140.799C142.379 129.443 145.027 118.174 143.911 106.665C143.145 98.7881 143.101 90.8892 142.904 82.9903C142.817 79.5988 143.364 76.2948 144.239 73.0346C144.436 72.2688 144.414 71.2185 145.486 71.1747C146.383 71.131 146.493 72.0937 146.799 72.7283C148.965 77.1263 149.381 81.9619 150.213 86.6881C151 91.0861 150.957 95.5498 151.088 100.889L151.132 100.911Z" fill="var(--fill-0, #88CA9B)"/>
<path id="Vector_9" d="M350.508 188.061C350.508 189.965 350.333 191.584 349.786 193.137C349.217 194.691 347.992 195.413 346.394 195.369C344.863 195.325 344.141 194.231 343.987 192.853C342.281 177.274 336.264 162.614 334.163 147.122C334.032 146.16 333.747 145.131 333.266 144.278C327.249 133.622 324.536 121.828 321.232 110.232C319.919 105.615 318.825 100.91 317.665 96.2499C317.446 95.4184 316.899 94.3244 318.015 93.843C319.109 93.3835 319.525 94.5651 320.05 95.2434C322.61 98.5255 324.01 102.355 325.279 106.249C326.811 110.997 328.102 115.833 330.728 120.144C331.275 121.041 331.515 122.222 331.559 123.272C331.734 127.649 333.222 131.675 335.235 135.438C337.926 140.536 339.83 145.831 340.99 151.498C342.587 159.441 345.738 166.924 348.035 174.67C349.348 179.134 350.07 183.685 350.552 188.039L350.508 188.061Z" fill="var(--fill-0, #077850)"/>
<path id="Vector_10" d="M442.078 103.558C443.085 106.49 444.244 109.356 445.098 112.332C450.524 131.171 455.163 150.229 459.998 169.222C462.318 178.368 464.046 187.645 466.038 196.879C466.3 198.082 466.41 199.395 465.119 199.986C463.871 200.555 463.127 199.461 462.449 198.607C456.432 191.081 453.631 182.241 451.903 172.941C451.356 170.075 451.224 167.165 450.984 164.277C450.087 153.533 446.586 143.359 444.266 132.922C442.21 123.666 441.247 114.301 441.181 104.849C441.181 104.433 441.116 103.908 442.078 103.558Z" fill="var(--fill-0, #88CA9B)"/>
<path id="Vector_11" d="M269.199 179.506C268.915 172.241 265.939 166.093 263.073 159.923C261.432 156.378 259.878 152.811 259.091 148.938C258.784 147.385 257.909 146.094 257.231 144.716C250.535 131.325 245.919 117.19 242.68 102.639C241.411 96.9064 240.755 91.0205 240.623 85.0908C240.623 84.2813 240.295 83.231 241.367 83.0341C242.768 82.7934 242.527 84.1281 242.724 84.9158C243.468 88.1104 243.008 91.4362 243.84 94.6308C244.081 95.5279 244.124 96.5563 245.284 96.6657C247.581 96.8626 247.866 98.4818 247.735 100.167C247.406 104.674 248.938 108.656 250.754 112.682C254.43 120.888 257.625 129.29 260.228 137.911C261.366 141.718 263.554 144.912 265.327 148.37C268.215 154.015 270.425 160.032 272.285 166.093C274.473 173.204 276.923 180.25 278.499 187.536C278.696 188.477 279.44 189.615 278.499 190.337C277.47 191.124 276.42 190.162 275.545 189.615C271.694 187.23 268.259 184.56 269.265 179.506H269.199Z" fill="var(--fill-0, #88CA9B)"/>
<path id="Vector_12" d="M105.292 151.761C105.335 150.229 105.357 148.676 105.445 147.144C105.773 141.061 105.576 135.022 104.592 128.983C103.782 123.929 105.445 118.874 105.576 113.798C105.598 112.617 105.97 111.369 105.707 110.275C103.76 102.355 106.123 94.39 105.335 86.4692C105.051 83.581 105.532 80.649 106.626 77.9139C106.998 76.9949 107.458 75.8352 108.574 75.8571C109.952 75.879 109.799 77.345 109.887 78.1984C110.915 89.3137 112.097 100.407 111.593 111.61C111.396 116.074 110.849 120.428 110.084 124.826C109.34 129.049 111.221 133.206 111.571 137.451C112.075 143.687 112.928 149.901 113.366 156.137C113.672 160.863 114.416 165.502 115.204 170.163C115.466 171.716 116.21 173.685 114.35 174.582C112.315 175.545 110.631 174.254 109.493 172.591C106.867 168.784 106.254 164.342 105.839 159.901C105.598 157.187 105.686 154.452 105.62 151.739C105.511 151.739 105.401 151.739 105.314 151.739L105.292 151.761Z" fill="var(--fill-0, #077850)"/>
<path id="Vector_13" d="M122.577 164.211C122.074 158.697 123.671 153.052 124.809 147.363C125.772 142.527 126.385 137.67 125.181 132.79C124.306 129.311 125.181 125.942 125.553 122.528C126.363 114.63 125.509 106.753 125.663 98.8536C125.772 94.0618 125.531 89.2262 126.8 84.5218C127.129 83.2746 127.522 82.0931 128.223 80.999C128.616 80.4083 128.967 79.5768 129.82 79.73C130.739 79.905 130.63 80.824 130.695 81.5023C131.242 87.7383 131.877 93.9524 132.227 100.188C132.467 104.171 132.774 108.153 133.452 112.091C133.802 114.17 133.627 116.161 133.036 118.24C131.636 123.229 130.608 128.305 131.767 133.534C132.249 135.679 131.636 137.692 130.783 139.617C129.273 143.009 128.879 146.553 128.945 150.251C129.076 156.225 129.754 162.22 128.835 168.193C128.507 170.338 128.682 173.445 125.619 173.313C122.468 173.182 122.84 170.075 122.643 167.778C122.556 166.684 122.577 165.611 122.556 164.145L122.577 164.211Z" fill="var(--fill-0, #05A181)"/>
<path id="Vector_14" d="M230.383 68.177C230.646 72.4219 230.296 76.5354 229.245 80.5396C227.473 87.3444 229.048 93.8649 230.471 100.407C231.871 106.884 235.131 112.901 235.941 119.465C237.407 131.39 241.411 142.549 245.328 153.774C247.91 161.148 249.376 168.828 250.47 176.574C250.535 177.099 250.557 177.668 250.47 178.193C250.338 179.002 250.229 179.965 249.266 180.14C248.216 180.315 247.997 179.287 247.669 178.565C244.978 172.744 243.752 166.509 242.549 160.273C241.499 154.934 240.689 149.551 239.682 144.212C239.114 141.149 237.976 138.304 236.225 135.701C235.722 134.957 235.197 134.125 235.066 133.272C233.162 121.041 227.867 110.122 222.2 99.335C221.5 98.0003 219.158 96.3374 222.244 94.8057C222.791 94.5213 222.331 93.4273 222.156 92.749C220.581 86.6224 222.112 80.9115 224.454 75.2663C225.679 72.3125 228.283 70.5401 230.427 68.177H230.383Z" fill="var(--fill-0, #05A181)"/>
<path id="Vector_15" d="M30.3724 107.847C30.5037 121.194 30.7444 132.55 29.4534 143.818C29.1034 146.772 28.3813 149.704 27.7249 152.614C27.331 154.365 26.5214 156.137 24.4647 156.093C22.1453 156.05 21.6639 153.927 21.4233 152.177C20.8981 148.282 21.1826 144.387 21.9265 140.536C22.6267 136.97 23.4144 133.425 24.6616 130.012C26.3683 125.373 26.5214 120.647 25.69 115.811C24.1365 106.862 23.0643 97.8691 23.2612 88.7668C23.3488 84.9158 24.1802 81.2179 25.5587 77.6295C25.865 76.8199 26.1932 75.7259 27.331 75.8791C28.3157 76.0104 28.3157 77.1044 28.4469 77.8702C28.7533 79.555 29.1034 81.2836 29.1471 82.9903C29.344 91.9613 30.5694 100.889 30.3724 107.869V107.847Z" fill="var(--fill-0, #077850)"/>
<path id="Vector_16" d="M188.197 166.596C188.241 168.872 188.307 171.125 188.329 173.401C188.329 174.407 188.329 175.523 187.125 175.873C185.769 176.289 185.134 175.283 184.631 174.298C182.246 169.659 181.677 164.561 181.458 159.507C181.174 153.118 178.745 147.122 178.329 140.777C178.329 140.514 178.264 140.208 178.11 139.989C173.384 133.337 174.916 125.329 173.406 117.999C172.181 112.07 171.196 106.074 170.124 100.101C169.971 99.2913 169.183 98.1316 170.43 97.7596C171.415 97.4752 171.481 98.7661 171.896 99.4225C177.388 108.109 179.401 118.043 182.18 127.714C185.812 140.405 187.322 153.468 188.175 166.618L188.197 166.596Z" fill="var(--fill-0, #05A181)"/>
<path id="Vector_17" d="M387.946 85.7472C388.755 86.5787 388.449 87.6289 388.493 88.5698C388.93 99.16 387.442 109.575 385.692 119.968C384.62 126.401 383.548 132.856 383.132 139.398C382.979 141.696 383.526 143.906 383.657 146.181C383.92 150.776 384.445 155.328 384.051 160.01C383.482 166.574 385.495 172.963 386.305 179.44C386.917 184.297 387.42 189.177 387.946 194.034C388.142 195.872 387.858 197.667 386.895 199.286C386.217 200.445 385.517 200.445 384.992 199.22C384.248 197.47 383.788 195.61 383.482 193.728C381.6 182.503 381.359 171.169 381.316 159.813C381.294 153.905 380.944 147.998 379.718 142.221C378.865 138.195 379.281 134.322 379.872 130.34C381.578 119.028 383.044 107.693 384.707 96.3812C385.123 93.5148 385.889 90.6922 386.567 87.8696C386.764 87.0382 386.72 86.0098 387.946 85.7472Z" fill="var(--fill-0, #077850)"/>
<path id="Vector_18" d="M91.9446 80.277C93.2356 81.1523 93.4763 82.4651 93.7607 83.6686C96.9772 97.8691 99.6685 112.113 97.6336 126.795C97.0866 130.756 97.9837 134.76 97.2616 138.742C96.1457 144.934 92.8636 149.792 88.6625 154.212C88.2906 154.606 87.8311 154.912 87.3716 155.218C86.1244 156.05 84.6584 156.859 83.3674 155.765C82.2077 154.781 83.1486 153.358 83.63 152.242C84.2426 150.842 84.8772 149.289 85.9274 148.238C90.3254 143.84 91.8571 138.304 91.3101 132.528C90.5661 124.695 93.5419 117.343 93.4106 109.597C93.2574 100.363 94.3077 91.0861 91.6383 82.0056C91.4851 81.5024 91.3538 80.9335 91.9227 80.277H91.9446Z" fill="var(--fill-0, #05A181)"/>
<path id="Vector_19" d="M80.6104 123.907C80.8949 125.285 80.6542 126.795 79.9759 128.393C79.1882 130.187 79.6477 132.134 79.9102 134.016C80.3697 137.276 80.501 140.514 79.8227 143.753C79.582 144.847 79.2101 145.853 78.3786 146.619C76.8688 148.041 75.4247 147.647 75.0309 145.613C74.637 143.578 74.3307 141.477 74.3088 139.42C74.1338 125.373 74.5495 111.369 78.2254 97.6503C79.3195 93.6024 80.8074 89.7295 82.3828 85.8785C82.5797 85.3971 82.7547 84.6751 83.3893 84.7626C84.2207 84.872 84.1332 85.7253 84.0894 86.3161C83.8269 89.6639 83.5424 92.9897 83.1486 96.3156C82.6016 101.02 82.8422 105.724 82.9954 110.45C83.0611 112.77 82.7328 114.958 81.6169 117.015C80.4791 119.093 80.4354 121.347 80.6323 123.929L80.6104 123.907Z" fill="var(--fill-0, #88CA9B)"/>
<path id="Vector_20" d="M159.403 103.186C160.475 108.35 160.321 113.339 160.562 118.305C161.284 134.169 162.006 150.054 162.685 165.918C162.772 167.734 162.685 169.55 162.553 171.344C162.51 172.022 162.269 172.876 161.328 172.898C160.584 172.898 160.3 172.197 160.059 171.629C159.031 169.265 158.637 166.749 158.287 164.233C156.689 152.702 155.42 141.149 155.88 129.508C156.186 121.631 156.274 113.711 157.958 105.943C158.155 105.024 158.024 103.908 159.424 103.186H159.403Z" fill="var(--fill-0, #077850)"/>
<path id="Vector_21" d="M427.177 104.871C429.169 107.103 429.147 109.794 429.781 112.266C431.335 118.24 432.254 124.366 434.245 130.23C434.529 131.062 434.814 132.112 434.573 132.9C432.385 140.186 434.507 147.45 434.573 154.693C434.573 156.334 434.858 157.953 434.901 159.572C434.901 160.644 434.77 161.76 434.551 162.811C434.223 164.299 433.217 165.327 431.663 165.174C430.219 165.042 430.372 163.598 430.263 162.57C429.169 151.739 428.162 140.886 427.002 130.055C426.193 122.528 426.412 115.023 426.893 107.496C426.959 106.621 427.09 105.746 427.199 104.849L427.177 104.871Z" fill="var(--fill-0, #05A181)"/>
<path id="Vector_22" d="M323.945 181.453C323.989 183.619 324.185 185.807 324.032 187.973C323.945 189.242 323.813 191.212 322.26 191.255C320.575 191.321 320.597 189.308 320.422 188.061C319.656 182.875 319.022 177.646 318.343 172.438C316.855 161.038 315.368 149.617 313.902 138.217C313.661 136.335 313.486 134.431 313.289 132.55C313.223 131.915 313.004 131.128 313.858 130.974C314.624 130.821 314.864 131.631 315.105 132.2C316.571 135.613 317.796 139.158 318.65 142.768C321.691 155.481 323.442 168.39 323.967 181.453H323.945Z" fill="var(--fill-0, #05A181)"/>
<path id="Vector_23" d="M181.13 78.264C181.261 80.2989 180.955 82.2682 180.474 84.2155C180.32 84.8501 180.08 85.5065 179.336 85.5721C178.657 85.6378 178.526 85.0251 178.307 84.5C174.872 76.3823 172.728 67.8488 169.993 59.4904C169.796 58.8997 169.511 58.1995 170.255 57.7837C170.846 57.4555 171.306 57.915 171.656 58.3089C176.907 63.9541 180.758 70.2995 181.152 78.2421L181.13 78.264Z" fill="var(--fill-0, #05A181)"/>
<path id="Vector_24" d="M421.642 169.922C421.685 176.005 421.795 181.606 421.707 187.186C421.664 190.162 422.429 193.159 421.664 196.135C421.51 196.704 421.62 197.535 420.81 197.667C420.198 197.776 419.869 197.207 419.563 196.769C414.924 189.877 415.362 176.377 421.642 169.9V169.922Z" fill="var(--fill-0, #077850)"/>
<path id="Vector_25" d="M428.928 210.904C428.534 204.843 428.096 199.264 427.856 193.662C427.724 190.687 426.784 187.733 427.374 184.735C427.484 184.144 427.352 183.335 428.14 183.138C428.753 182.985 429.103 183.532 429.431 183.969C434.464 190.577 434.814 204.099 428.928 210.904Z" fill="var(--fill-0, #077850)"/>
<path id="Vector_26" d="M117.939 73.9754C113.716 73.8878 109.996 69.271 110.849 65.1356C111.112 63.8228 111.703 62.7287 113.191 62.5099C114.591 62.2911 115.882 62.3349 116.801 63.6696C118.42 65.9889 119.624 68.5052 120.192 71.2841C120.674 73.6034 120.28 74.0191 117.917 73.9754H117.939Z" fill="var(--fill-0, #05A181)"/>
<path id="Vector_27" d="M97.1522 56.4271C97.1522 58.1557 96.8677 59.6873 95.2486 60.4531C93.52 61.2846 92.1197 60.5188 90.8506 59.2935C87.1746 55.7488 87.6341 51.132 91.8352 49.3378C93.4325 48.6595 94.6578 48.9439 95.4455 50.5631C96.3645 52.4448 96.8677 54.4579 97.1303 56.4271H97.1522Z" fill="var(--fill-0, #05A181)"/>
<path id="Vector_28" d="M142.423 6.69252C142.533 5.68601 142.642 4.41693 142.839 3.16974C143.364 -0.418682 144.392 -0.834414 147.346 1.28801C149.972 3.19162 150.541 7.67715 148.353 9.93085C147.237 11.0686 145.793 11.9657 144.217 11.3968C142.182 10.6529 142.708 8.57425 142.423 6.69252Z" fill="var(--fill-0, #05A181)"/>
<path id="Vector_29" d="M89.6252 67.1268C89.6252 67.7613 89.6909 68.3959 89.6471 69.0304C89.5815 70.1463 90.0847 71.5904 88.6187 72.1156C87.2402 72.6188 85.9493 72.0499 84.8552 71.1309C81.8357 68.5928 82.2733 63.6915 85.6211 62.2693C88.1373 61.219 89.4283 61.9848 89.5596 64.6761C89.6033 65.4857 89.6033 66.3172 89.6252 67.1268Z" fill="var(--fill-0, #05A181)"/>
<path id="Vector_30" d="M324.032 82.0931C324.032 82.7277 324.098 83.3622 324.054 83.9968C323.989 85.1127 324.492 86.5568 323.026 87.0819C321.647 87.5852 320.356 87.0163 319.262 86.0973C316.243 83.5591 316.68 78.6579 320.028 77.2356C322.544 76.1854 323.835 76.9512 323.967 79.6425C324.01 80.4521 324.01 81.2836 324.032 82.0931Z" fill="var(--fill-0, #05A181)"/>
<path id="Vector_31" d="M439.803 169.616C439.978 170.031 440.218 170.447 440.306 170.885C440.546 172.044 441.925 173.313 440.656 174.364C439.474 175.326 437.877 174.911 436.477 174.407C434.179 173.554 432.669 170.556 433.304 168.15C433.72 166.618 434.748 165.677 436.345 165.436C438.008 165.196 438.512 166.399 438.993 167.603C439.277 168.281 439.54 168.937 439.824 169.616H439.781H439.803Z" fill="var(--fill-0, #05A181)"/>
<path id="Vector_32" d="M149.491 26.6476C149.403 27.7854 149.447 29.3389 147.893 29.8641C146.515 30.3236 145.858 29.0107 145.114 28.1355C143.889 26.6914 142.598 25.2691 141.417 23.7813C140.06 22.0527 140.651 20.718 142.839 20.4335C146.274 19.974 149.337 22.731 149.491 26.6476Z" fill="var(--fill-0, #05A181)"/>
<path id="Vector_33" d="M289.614 49.3598C289.57 48.3533 289.483 47.0842 289.483 45.8151C289.461 42.1829 290.402 41.614 293.662 43.277C296.55 44.7648 297.775 49.1191 295.959 51.6572C295.04 52.9482 293.728 54.0641 292.108 53.7359C289.986 53.2983 290.183 51.1759 289.614 49.3598Z" fill="var(--fill-0, #05A181)"/>
<path id="Vector_34" d="M299.613 68.0239C299.701 69.1617 299.985 70.6933 298.519 71.4373C297.228 72.1156 296.375 70.9122 295.5 70.1463C294.056 68.8991 292.568 67.6957 291.189 66.4047C289.57 64.895 289.964 63.4946 292.086 62.882C295.412 61.9192 298.848 64.1729 299.613 68.0239Z" fill="var(--fill-0, #05A181)"/>
<path id="Vector_35" d="M161.788 37.6317C161.831 39.1415 161.788 40.2355 161.219 41.1982C160.103 42.9924 158.287 43.3207 156.471 42.9487C154.567 42.5548 155.201 40.8263 155.18 39.5791C155.158 38.0912 155.814 36.7784 156.624 35.553C157.302 34.5246 157.871 33.0805 159.403 33.4087C161.022 33.7588 161.525 35.2029 161.744 36.7127C161.809 37.1503 161.809 37.6098 161.809 37.6317H161.788Z" fill="var(--fill-0, #05A181)"/>
<path id="Vector_36" d="M13.2618 69.468C13.5244 70.934 12.8242 71.5904 11.4676 71.3278C9.36709 70.934 7.551 69.9712 6.41321 68.0457C5.55987 66.6016 5.8662 65.1794 7.00399 64.1072C8.2293 62.9694 9.80471 62.5318 11.5114 62.8819C12.1022 63.0132 12.2991 63.5821 12.3866 64.1291C12.6929 65.9014 12.9774 67.6738 13.2618 69.4461V69.468Z" fill="var(--fill-0, #05A181)"/>
<path id="Vector_37" d="M350.573 110.254C350.836 111.72 350.136 112.376 348.779 112.113C346.679 111.72 344.863 110.757 343.725 108.831C342.871 107.387 343.178 105.965 344.316 104.893C345.541 103.755 347.116 103.317 348.823 103.667C349.414 103.799 349.611 104.368 349.698 104.915C350.005 106.687 350.289 108.459 350.573 110.232V110.254Z" fill="var(--fill-0, #05A181)"/>
<path id="Vector_38" d="M773.088 111.479C772.169 118.043 770.156 124.323 769.303 130.865C768.515 136.992 767.574 143.074 767.924 149.288C768.099 152.242 768.603 155.021 769.806 157.712C771.513 161.542 772.716 165.546 773.657 169.615C773.985 170.994 774.313 172.504 772.716 173.182C771.097 173.882 769.915 172.788 769.106 171.497C766.611 167.559 764.861 163.27 763.57 158.806C762.126 153.84 760.857 148.807 758.559 144.125C758.472 143.971 758.472 143.753 758.362 143.621C752.63 136.838 752.345 127.473 747.553 120.384C744.053 115.22 743.484 109.466 742.105 103.799C739.698 93.821 736.919 83.9529 732.784 74.5005C731.471 71.4809 731.099 68.1988 730.18 65.048C729.983 64.3916 729.852 63.407 730.705 63.1444C731.799 62.7943 732.828 66.711 733.134 67.7612C733.287 68.2645 738.604 78.8328 740.399 82.1149C743.396 87.607 746.438 93.1209 747.488 99.4225C747.553 99.8601 747.794 100.276 748.035 100.67C748.21 100.954 748.538 101.151 749.26 101.807C749.457 98.7879 749.654 96.2279 749.742 93.6679C750.07 84.6968 750.573 75.7258 751.864 66.8204C752.039 65.5732 752.411 64.3479 752.849 63.1444C753.133 62.3567 753.374 61.197 754.555 61.3721C755.496 61.5253 755.518 62.5536 755.759 63.3195C756.743 66.3828 756.087 69.4679 755.802 72.5093C755.19 79.0516 755.605 85.5721 756.021 92.0925C756.503 99.6194 757.247 107.124 755.999 114.63C755.387 118.349 756.481 121.828 757.509 125.307C758.275 127.911 758.997 130.537 759.785 133.162C760.069 134.081 760.135 135.372 761.426 135.35C763.001 135.329 762.804 133.819 762.892 132.856C763.308 129.071 763.57 125.263 763.964 121.478C764.73 113.907 765.408 106.293 767.596 98.9411C767.924 97.8252 767.596 96.7968 767.268 95.7465C766.218 92.3769 765.167 88.9854 764.161 85.5939C763.898 84.7406 763.592 83.756 764.511 83.0995C765.452 82.4431 766.283 83.0558 766.983 83.6028C768.428 84.7406 769.85 85.7909 771.666 86.316C772.497 86.5567 772.979 87.3225 773.198 88.1321C774.685 93.821 777.924 98.7442 780.462 103.952C785.713 114.783 787.836 126.27 788.536 138.173C789.017 146.05 789.542 153.949 789.499 161.848C789.477 167.034 789.061 172.176 787.792 177.23C787.376 178.937 786.632 180.468 785.823 182C785.429 182.722 784.991 183.532 784.028 183.422C783.022 183.313 782.891 182.35 782.738 181.562C781.95 177.821 781.643 174.014 781.447 170.206C780.943 159.594 780.637 148.982 780.112 138.37C779.696 129.683 777.792 121.303 774.423 113.273C774.16 112.638 774.117 111.807 773.023 111.435L773.088 111.479Z" fill="var(--fill-0, #05A181)"/>
<path id="Vector_39" d="M546.449 151.542C545.792 147.582 545.727 144.278 545.639 140.996C545.376 131.478 546.821 121.85 544.939 112.463C542.598 100.801 546.996 89.8608 547.849 78.5704C548.374 71.8093 549.774 65.092 551.612 58.5059C552.05 56.9086 552.378 55.2019 553.932 53.6703C554.96 57.8714 554.501 61.7442 554.326 65.5733C553.954 73.7567 552.181 81.765 550.562 89.7733C548.965 97.6941 547.39 105.549 547.805 113.754C548.527 127.955 548.79 142.155 551.394 156.203C552.006 159.463 552.072 162.898 551.262 166.224C550.934 167.537 550.365 168.587 548.943 168.981C547.499 169.375 546.492 168.653 545.573 167.69C544.545 166.618 543.954 165.283 543.363 163.949C540.891 158.347 539.359 152.461 537.893 146.553C537.193 143.687 536.602 143.6 534.414 145.569C532.533 147.254 531.81 149.267 531.701 151.827C531.46 158.172 531.548 164.539 530.082 170.775C529.622 172.723 529.207 174.692 528.178 176.421C527.5 177.558 526.581 178.477 525.115 178.302C523.605 178.127 523.014 176.989 522.708 175.698C522.074 173.095 522.096 170.469 522.446 167.843C522.949 164.145 523.737 160.448 525.312 157.078C527.763 151.892 527.981 146.597 526.887 141.149C525.399 133.731 524.787 126.226 524.984 118.678C525.027 116.686 524.568 114.958 523.321 113.361C521.505 111.019 520.608 108.262 520.236 105.33C519.317 98.3724 516.8 91.7863 515.291 84.9596C514.569 81.6775 513.803 78.4173 513.168 75.1133C513.037 74.3912 512.665 73.2972 513.671 72.969C514.415 72.7064 514.919 73.6035 515.334 74.1724C518.441 78.2641 520.673 82.8153 522.183 87.7165C523.824 93.0991 525.465 98.4818 527.172 103.843C527.478 104.783 527.434 106.381 528.857 106.271C530.082 106.184 530.169 104.696 530.541 103.689C531.526 100.954 531.088 98.1098 531.067 95.3091C530.979 84.7407 531.789 74.2818 534.261 63.976C534.567 62.6632 535.114 61.3941 535.618 60.1251C535.815 59.6218 536.121 59.0091 536.756 59.1404C537.368 59.2717 537.412 59.95 537.478 60.4751C538.309 68.2428 538.572 76.0323 538.375 83.8655C538.068 95.9217 535.683 107.781 535.049 119.815C534.546 129.333 538.134 137.561 542.554 145.591C543.56 147.429 544.173 149.573 546.536 151.542H546.449Z" fill="var(--fill-0, #05A181)"/>
<path id="Vector_40" d="M851.99 132.878C848.73 142.593 847.242 152.374 842.887 161.257C842.34 162.373 842.122 164.474 840.459 163.97C839.014 163.555 839.474 161.564 839.583 160.295C840.568 148.873 842.931 137.692 845.535 126.555C847.329 118.918 849.627 111.479 853.018 104.411C853.718 102.945 854.725 101.654 855.666 100.298C856.038 99.7727 856.563 99.3132 857.285 99.5758C858.029 99.8603 858.116 100.604 857.941 101.195C855.556 109.291 859.145 116.971 859.517 124.87C859.867 132.309 860.261 139.727 859.56 147.166C858.554 157.822 857.504 168.456 858.576 179.177C858.926 182.766 859.035 186.442 858.357 190.03C858.16 191.102 857.985 192.196 857.613 193.203C857 194.822 856.235 196.879 854.375 196.835C852.274 196.77 851.355 194.713 850.918 192.787C849.43 186.508 849.999 180.184 850.48 173.839C851.202 163.97 853.456 154.277 853.368 144.344C853.324 140.624 852.668 136.948 852.033 132.856L851.99 132.878Z" fill="var(--fill-0, #05A181)"/>
<path id="Vector_41" d="M899.908 96.9501C901.046 102.683 901.746 108.437 901.856 114.236C901.943 119.312 901.856 124.388 901.79 129.465C901.746 133.206 901.44 136.904 900.083 140.449C899.536 141.849 899.602 143.315 899.602 144.759C899.646 152.199 896.451 158.238 891.55 163.533C891.309 163.795 891.047 164.058 890.784 164.299C886.845 167.887 884.964 171.979 886.014 177.58C887.021 182.919 886.736 188.433 886.036 193.859C885.927 194.756 885.795 195.654 885.533 196.529C885.27 197.448 884.657 198.17 883.651 198.279C882.513 198.41 881.769 197.732 881.31 196.769C880.15 194.406 880.128 191.824 880.128 189.308C880.128 185.129 880.697 180.972 881.572 176.88C882.316 173.423 882.229 170.075 881.31 166.662C879.406 159.551 877.918 152.374 877.349 145C877.065 141.28 877.524 137.736 879.122 134.388C880.434 131.587 880.85 128.721 880.522 125.657C879.581 116.708 878.947 107.759 880.084 98.7661C880.347 96.6 880.828 94.4775 881.31 92.3551C881.441 91.7206 881.419 90.6922 882.404 90.7578C883.104 90.8016 883.257 91.6112 883.367 92.2457C884.876 100.473 886.299 108.766 886.058 117.124C885.73 128.086 886.211 139.048 885.861 150.011C885.773 152.505 886.561 155.021 886.977 157.537C887.152 158.588 887.633 159.047 888.596 158.15C890.872 156.006 892.731 153.686 893.06 150.339C893.76 143.293 895.226 136.401 897.02 129.53C899.405 120.45 899.142 110.997 899.011 101.654C898.989 100.057 898.705 98.4379 899.908 96.9938V96.9501Z" fill="var(--fill-0, #05A181)"/>
<path id="Vector_42" d="M483.148 82.0493C483.279 78.0671 483.411 74.0629 483.586 70.0806C483.608 69.3367 483.411 68.2208 484.57 68.177C485.446 68.177 485.555 69.1616 485.708 69.8399C487.984 81.1303 490.872 92.3989 490.938 103.952C491.003 113.273 492.185 122.55 491.441 131.893C491.069 136.401 492.666 140.843 493.344 145.328C494.832 155.152 495.576 164.977 493.148 174.779C492.447 177.602 491.528 180.359 490.019 182.875C489.362 183.991 488.399 185.063 486.999 184.866C485.467 184.669 485.577 183.138 485.424 182.044C484.352 174.21 484.001 166.333 483.805 158.456C483.389 142.33 482.951 126.204 482.864 110.057C482.82 100.713 483.433 91.3924 483.761 82.0493H483.148Z" fill="var(--fill-0, #05A181)"/>
<path id="Vector_43" d="M715.936 178.521C715.87 179.637 716.111 180.687 715.017 181.081C714.011 181.431 713.267 180.731 712.632 180.096C709.634 177.055 707.862 173.248 706.265 169.397C703.377 162.482 701.648 155.284 701.364 147.735C701.079 139.88 698.497 132.418 697.031 124.76C696.44 121.719 695.653 118.743 694.734 115.811C692.502 108.722 692.786 101.26 691.67 94.018C691.145 90.6484 690.423 87.4757 692.655 84.1061C693.858 82.29 693.246 79.3361 693.662 76.9292C693.99 75.0038 694.143 72.0499 696.047 71.9405C697.556 71.8748 697.294 74.96 697.469 76.6448C698.016 82.0493 698.388 87.4976 698.716 92.924C699.066 98.4598 699.854 103.908 700.795 109.378C704.755 132.003 711.713 153.971 715.608 176.617C715.739 177.339 715.87 178.04 715.958 178.543L715.936 178.521Z" fill="var(--fill-0, #077850)"/>
<path id="Vector_44" d="M677.01 61.5472C678.454 72.9908 682.831 83.6904 681.671 95.134C680.949 102.18 680.555 109.225 680.096 116.271C679.417 126.555 682.327 136.401 683.684 146.444C684.975 156.05 688.323 165.086 690.314 174.473C690.62 175.895 690.795 177.339 690.576 178.805C690.445 179.681 689.942 180.337 689.023 180.468C688.016 180.622 687.491 179.921 687.272 179.112C686.9 177.711 686.66 176.289 686.419 174.845C684.165 162.307 680.161 150.229 676.901 137.976C674.603 129.355 673.575 120.515 672.831 111.676C671.496 95.7685 672.875 79.9926 675.719 64.3261C675.873 63.4946 675.763 62.4881 677.098 61.5691L677.01 61.5472Z" fill="var(--fill-0, #05A181)"/>
<path id="Vector_45" d="M633.993 100.911C634.453 109.685 633.337 119.246 632.177 128.808C631.542 134.082 631.827 139.311 632.089 144.562C632.33 149.113 632.308 153.665 631.302 158.106C630.798 160.382 630.361 163.489 627.604 163.489C624.628 163.489 624.212 160.251 623.884 157.91C623.097 152.221 623.359 146.51 623.994 140.799C625.241 129.443 627.888 118.174 626.773 106.665C626.007 98.7881 625.963 90.8892 625.766 82.9903C625.678 79.5988 626.225 76.2948 627.101 73.0346C627.298 72.2688 627.276 71.2185 628.348 71.1747C629.245 71.131 629.354 72.0937 629.661 72.7283C631.827 77.1263 632.243 81.9619 633.074 86.6881C633.862 91.0861 633.818 95.5498 633.949 100.889L633.993 100.911Z" fill="var(--fill-0, #88CA9B)"/>
<path id="Vector_46" d="M833.369 188.061C833.369 189.965 833.194 191.584 832.647 193.137C832.078 194.691 830.853 195.413 829.256 195.369C827.724 195.325 827.002 194.231 826.849 192.853C825.142 177.274 819.125 162.614 817.024 147.122C816.893 146.16 816.609 145.131 816.127 144.278C810.11 133.622 807.397 121.828 804.093 110.232C802.78 105.615 801.686 100.91 800.526 96.2499C800.308 95.4184 799.761 94.3244 800.877 93.843C801.971 93.3835 802.386 94.5651 802.912 95.2434C805.472 98.5255 806.872 102.355 808.141 106.249C809.673 110.997 810.964 115.833 813.589 120.144C814.136 121.041 814.377 122.222 814.421 123.272C814.596 127.649 816.084 131.675 818.097 135.438C820.788 140.536 822.692 145.831 823.851 151.498C825.448 159.441 828.599 166.924 830.897 174.67C832.21 179.134 832.932 183.685 833.413 188.039L833.369 188.061Z" fill="var(--fill-0, #077850)"/>
<path id="Vector_47" d="M924.94 103.558C925.946 106.49 927.106 109.356 927.959 112.332C933.385 131.171 938.024 150.229 942.86 169.222C945.179 178.368 946.908 187.645 948.899 196.879C949.161 198.082 949.271 199.395 947.98 199.986C946.733 200.555 945.989 199.461 945.31 198.607C939.293 191.081 936.492 182.241 934.764 172.941C934.217 170.075 934.086 167.165 933.845 164.277C932.948 153.533 929.447 143.359 927.128 132.922C925.071 123.666 924.108 114.301 924.042 104.849C924.042 104.433 923.977 103.908 924.94 103.558Z" fill="var(--fill-0, #88CA9B)"/>
<path id="Vector_48" d="M752.061 179.506C751.776 172.241 748.801 166.093 745.934 159.923C744.293 156.378 742.74 152.811 741.952 148.938C741.646 147.385 740.77 146.094 740.092 144.716C733.397 131.325 728.78 117.19 725.542 102.639C724.272 96.9064 723.616 91.0205 723.485 85.0908C723.485 84.2813 723.157 83.231 724.229 83.0341C725.629 82.7934 725.388 84.1281 725.585 84.9158C726.329 88.1104 725.87 91.4362 726.701 94.6308C726.942 95.5279 726.986 96.5563 728.145 96.6657C730.443 96.8626 730.727 98.4818 730.596 100.167C730.268 104.674 731.799 108.656 733.616 112.682C737.291 120.888 740.486 129.29 743.09 137.911C744.228 141.718 746.416 144.912 748.188 148.37C751.076 154.015 753.286 160.032 755.146 166.093C757.334 173.204 759.785 180.25 761.36 187.536C761.557 188.477 762.301 189.615 761.36 190.337C760.332 191.124 759.281 190.162 758.406 189.615C754.555 187.23 751.12 184.56 752.126 179.506H752.061Z" fill="var(--fill-0, #88CA9B)"/>
<path id="Vector_49" d="M588.153 151.761C588.197 150.229 588.219 148.676 588.306 147.144C588.634 141.061 588.438 135.022 587.453 128.983C586.643 123.929 588.306 118.874 588.438 113.798C588.459 112.617 588.831 111.369 588.569 110.275C586.621 102.355 588.985 94.39 588.197 86.4692C587.912 83.581 588.394 80.649 589.488 77.9139C589.86 76.9949 590.319 75.8352 591.435 75.8571C592.814 75.879 592.66 77.345 592.748 78.1984C593.776 89.3137 594.958 100.407 594.455 111.61C594.258 116.074 593.711 120.428 592.945 124.826C592.201 129.049 594.083 133.206 594.433 137.451C594.936 143.687 595.789 149.901 596.227 156.137C596.533 160.863 597.277 165.502 598.065 170.163C598.328 171.716 599.072 173.685 597.212 174.582C595.177 175.545 593.492 174.254 592.354 172.591C589.729 168.784 589.116 164.342 588.7 159.901C588.459 157.187 588.547 154.452 588.481 151.739C588.372 151.739 588.262 151.739 588.175 151.739L588.153 151.761Z" fill="var(--fill-0, #077850)"/>
<path id="Vector_50" d="M605.439 164.211C604.936 158.697 606.533 153.052 607.671 147.363C608.633 142.527 609.246 137.67 608.043 132.79C607.167 129.311 608.043 125.942 608.415 122.528C609.224 114.63 608.371 106.753 608.524 98.8536C608.633 94.0618 608.393 89.2262 609.662 84.5218C609.99 83.2746 610.384 82.0931 611.084 80.999C611.478 80.4083 611.828 79.5768 612.681 79.73C613.6 79.905 613.491 80.824 613.557 81.5023C614.104 87.7383 614.738 93.9524 615.088 100.188C615.329 104.171 615.635 108.153 616.314 112.091C616.664 114.17 616.489 116.161 615.898 118.24C614.497 123.229 613.469 128.305 614.629 133.534C615.11 135.679 614.497 137.692 613.644 139.617C612.134 143.009 611.74 146.553 611.806 150.251C611.937 156.225 612.616 162.22 611.697 168.193C611.368 170.338 611.543 173.445 608.48 173.313C605.329 173.182 605.701 170.075 605.504 167.778C605.417 166.684 605.439 165.611 605.417 164.145L605.439 164.211Z" fill="var(--fill-0, #05A181)"/>
<path id="Vector_51" d="M713.245 68.177C713.507 72.4219 713.157 76.5354 712.107 80.5396C710.334 87.3444 711.91 93.8649 713.332 100.407C714.732 106.884 717.993 112.901 718.802 119.465C720.268 131.39 724.272 142.549 728.189 153.774C730.771 161.148 732.237 168.828 733.331 176.574C733.397 177.099 733.418 177.668 733.331 178.193C733.2 179.002 733.09 179.965 732.128 180.14C731.077 180.315 730.858 179.287 730.53 178.565C727.839 172.744 726.614 166.509 725.41 160.273C724.36 154.934 723.55 149.551 722.544 144.212C721.975 141.149 720.837 138.304 719.087 135.701C718.583 134.957 718.058 134.125 717.927 133.272C716.023 121.041 710.728 110.122 705.061 99.335C704.361 98.0003 702.02 96.3374 705.105 94.8057C705.652 94.5213 705.192 93.4273 705.017 92.749C703.442 86.6224 704.974 80.9115 707.315 75.2663C708.54 72.3125 711.144 70.5401 713.288 68.177H713.245Z" fill="var(--fill-0, #05A181)"/>
<path id="Vector_52" d="M513.234 107.847C513.365 121.194 513.606 132.55 512.315 143.818C511.965 146.772 511.243 149.704 510.586 152.614C510.193 154.365 509.383 156.137 507.326 156.093C505.007 156.05 504.526 153.927 504.285 152.177C503.76 148.282 504.044 144.387 504.788 140.536C505.488 136.97 506.276 133.425 507.523 130.012C509.23 125.373 509.383 120.647 508.552 115.811C506.998 106.862 505.926 97.8691 506.123 88.7668C506.21 84.9158 507.042 81.2179 508.42 77.6295C508.727 76.8199 509.055 75.7259 510.193 75.8791C511.177 76.0104 511.177 77.1044 511.308 77.8702C511.615 79.555 511.965 81.2836 512.009 82.9903C512.206 91.9613 513.431 100.889 513.234 107.869V107.847Z" fill="var(--fill-0, #077850)"/>
<path id="Vector_53" d="M671.059 166.596C671.103 168.872 671.168 171.125 671.19 173.401C671.19 174.407 671.19 175.523 669.987 175.873C668.63 176.289 667.995 175.283 667.492 174.298C665.107 169.659 664.538 164.561 664.319 159.507C664.035 153.118 661.606 147.122 661.191 140.777C661.191 140.514 661.125 140.208 660.972 139.989C656.246 133.337 657.777 125.329 656.267 117.999C655.042 112.07 654.057 106.074 652.985 100.101C652.832 99.2913 652.044 98.1316 653.292 97.7596C654.276 97.4752 654.342 98.7661 654.758 99.4225C660.25 108.109 662.263 118.043 665.042 127.714C668.674 140.405 670.183 153.468 671.037 166.618L671.059 166.596Z" fill="var(--fill-0, #05A181)"/>
<path id="Vector_54" d="M870.807 85.7472C871.617 86.5787 871.31 87.6289 871.354 88.5698C871.792 99.16 870.304 109.575 868.553 119.968C867.481 126.401 866.409 132.856 865.993 139.398C865.84 141.696 866.387 143.906 866.518 146.181C866.781 150.776 867.306 155.328 866.912 160.01C866.343 166.574 868.356 172.963 869.166 179.44C869.779 184.297 870.282 189.177 870.807 194.034C871.004 195.872 870.719 197.667 869.757 199.286C869.078 200.445 868.378 200.445 867.853 199.22C867.109 197.47 866.65 195.61 866.343 193.728C864.462 182.503 864.221 171.169 864.177 159.813C864.155 153.905 863.805 147.998 862.58 142.221C861.726 138.195 862.142 134.322 862.733 130.34C864.44 119.028 865.906 107.693 867.569 96.3812C867.984 93.5148 868.75 90.6922 869.428 87.8696C869.625 87.0382 869.582 86.0098 870.807 85.7472Z" fill="var(--fill-0, #077850)"/>
<path id="Vector_55" d="M574.806 80.277C576.097 81.1523 576.338 82.4651 576.622 83.6686C579.838 97.8691 582.53 112.113 580.495 126.795C579.948 130.756 580.845 134.76 580.123 138.742C579.007 144.934 575.725 149.792 571.524 154.212C571.152 154.606 570.692 154.912 570.233 155.218C568.986 156.05 567.52 156.859 566.229 155.765C565.069 154.781 566.01 153.358 566.491 152.242C567.104 150.842 567.738 149.289 568.789 148.238C573.187 143.84 574.718 138.304 574.171 132.528C573.427 124.695 576.403 117.343 576.272 109.597C576.119 100.363 577.169 91.0861 574.5 82.0056C574.346 81.5024 574.215 80.9335 574.784 80.277H574.806Z" fill="var(--fill-0, #05A181)"/>
<path id="Vector_56" d="M563.472 123.907C563.756 125.285 563.516 126.795 562.837 128.393C562.05 130.187 562.509 132.134 562.772 134.016C563.231 137.276 563.362 140.514 562.684 143.753C562.443 144.847 562.071 145.853 561.24 146.619C559.73 148.041 558.286 147.647 557.892 145.613C557.498 143.578 557.192 141.477 557.17 139.42C556.995 125.373 557.411 111.369 561.087 97.6503C562.181 93.6024 563.669 89.7295 565.244 85.8785C565.441 85.3971 565.616 84.6751 566.251 84.7626C567.082 84.872 566.995 85.7253 566.951 86.3161C566.688 89.6639 566.404 92.9897 566.01 96.3156C565.463 101.02 565.704 105.724 565.857 110.45C565.922 112.77 565.594 114.958 564.478 117.015C563.341 119.093 563.297 121.347 563.494 123.929L563.472 123.907Z" fill="var(--fill-0, #88CA9B)"/>
<path id="Vector_57" d="M642.264 103.186C643.336 108.35 643.183 113.339 643.424 118.305C644.146 134.169 644.868 150.054 645.546 165.918C645.633 167.734 645.546 169.55 645.415 171.344C645.371 172.022 645.13 172.876 644.189 172.898C643.445 172.898 643.161 172.197 642.92 171.629C641.892 169.265 641.498 166.749 641.148 164.233C639.551 152.702 638.282 141.149 638.741 129.508C639.047 121.631 639.135 113.711 640.82 105.943C641.017 105.024 640.885 103.908 642.286 103.186H642.264Z" fill="var(--fill-0, #077850)"/>
<path id="Vector_58" d="M910.039 104.871C912.03 107.103 912.008 109.794 912.643 112.266C914.196 118.24 915.115 124.366 917.106 130.23C917.391 131.062 917.675 132.112 917.435 132.9C915.246 140.186 917.369 147.45 917.435 154.693C917.435 156.334 917.719 157.953 917.763 159.572C917.763 160.644 917.631 161.76 917.413 162.811C917.084 164.299 916.078 165.327 914.524 165.174C913.08 165.042 913.233 163.598 913.124 162.57C912.03 151.739 911.023 140.886 909.864 130.055C909.054 122.528 909.273 115.023 909.754 107.496C909.82 106.621 909.951 105.746 910.061 104.849L910.039 104.871Z" fill="var(--fill-0, #05A181)"/>
<path id="Vector_59" d="M806.784 181.453C806.828 183.619 807.025 185.807 806.872 187.973C806.784 189.242 806.653 191.212 805.099 191.255C803.415 191.321 803.436 189.308 803.261 188.061C802.496 182.875 801.861 177.646 801.183 172.438C799.695 161.038 798.207 149.617 796.741 138.217C796.5 136.335 796.325 134.431 796.128 132.55C796.063 131.915 795.844 131.128 796.697 130.974C797.463 130.821 797.704 131.631 797.944 132.2C799.41 135.613 800.636 139.158 801.489 142.768C804.53 155.481 806.281 168.39 806.806 181.453H806.784Z" fill="var(--fill-0, #05A181)"/>
<path id="Vector_60" d="M663.991 78.264C664.123 80.2989 663.816 82.2682 663.335 84.2155C663.182 84.8501 662.941 85.5065 662.197 85.5721C661.519 85.6378 661.388 85.0251 661.169 84.5C657.734 76.3823 655.589 67.8488 652.854 59.4904C652.657 58.8997 652.373 58.1995 653.117 57.7837C653.707 57.4555 654.167 57.915 654.517 58.3089C659.768 63.9541 663.619 70.2995 664.013 78.2421L663.991 78.264Z" fill="var(--fill-0, #05A181)"/>
<path id="Vector_61" d="M904.503 169.922C904.547 176.005 904.656 181.606 904.569 187.186C904.525 190.162 905.291 193.159 904.525 196.135C904.372 196.704 904.481 197.535 903.672 197.667C903.059 197.776 902.731 197.207 902.424 196.769C897.786 189.877 898.223 176.377 904.503 169.9V169.922Z" fill="var(--fill-0, #077850)"/>
<path id="Vector_62" d="M911.767 210.904C911.374 204.843 910.936 199.264 910.695 193.662C910.564 190.687 909.623 187.733 910.214 184.735C910.323 184.144 910.192 183.335 910.98 183.138C911.592 182.985 911.942 183.532 912.271 183.969C917.303 190.577 917.653 204.099 911.767 210.904Z" fill="var(--fill-0, #077850)"/>
<path id="Vector_63" d="M600.8 73.9754C596.577 73.8878 592.857 69.271 593.711 65.1356C593.973 63.8228 594.564 62.7287 596.052 62.5099C597.452 62.2911 598.743 62.3349 599.662 63.6696C601.281 65.9889 602.485 68.5052 603.054 71.2841C603.535 73.6034 603.141 74.0191 600.778 73.9754H600.8Z" fill="var(--fill-0, #05A181)"/>
<path id="Vector_64" d="M580.014 56.4271C580.014 58.1557 579.729 59.6873 578.11 60.4531C576.381 61.2846 574.981 60.5188 573.712 59.2935C570.036 55.7488 570.496 51.132 574.697 49.3378C576.294 48.6595 577.519 48.9439 578.307 50.5631C579.226 52.4448 579.729 54.4579 579.992 56.4271H580.014Z" fill="var(--fill-0, #05A181)"/>
<path id="Vector_65" d="M625.285 6.69252C625.394 5.68601 625.503 4.41693 625.7 3.16974C626.225 -0.418682 627.254 -0.834414 630.208 1.28801C632.833 3.19162 633.402 7.67715 631.214 9.93085C630.098 11.0686 628.654 11.9657 627.079 11.3968C625.044 10.6529 625.569 8.57425 625.285 6.69252Z" fill="var(--fill-0, #05A181)"/>
<path id="Vector_66" d="M572.487 67.1268C572.487 67.7613 572.552 68.3959 572.509 69.0304C572.443 70.1463 572.946 71.5904 571.48 72.1156C570.102 72.6188 568.811 72.0499 567.717 71.1309C564.697 68.5928 565.135 63.6915 568.483 62.2693C570.999 61.219 572.29 61.9848 572.421 64.6761C572.465 65.4857 572.465 66.3172 572.487 67.1268Z" fill="var(--fill-0, #05A181)"/>
<path id="Vector_67" d="M806.872 82.0931C806.872 82.7277 806.937 83.3622 806.894 83.9968C806.828 85.1127 807.331 86.5568 805.865 87.0819C804.487 87.5852 803.196 87.0163 802.102 86.0973C799.082 83.5591 799.52 78.6579 802.868 77.2356C805.384 76.1854 806.675 76.9512 806.806 79.6425C806.85 80.4521 806.85 81.2836 806.872 82.0931Z" fill="var(--fill-0, #05A181)"/>
<path id="Vector_68" d="M922.642 169.616C922.817 170.031 923.058 170.447 923.145 170.885C923.386 172.044 924.765 173.313 923.496 174.364C922.314 175.326 920.717 174.911 919.316 174.407C917.019 173.554 915.509 170.556 916.144 168.15C916.559 166.618 917.588 165.677 919.185 165.436C920.848 165.196 921.351 166.399 921.833 167.603C922.117 168.281 922.38 168.937 922.664 169.616H922.62H922.642Z" fill="var(--fill-0, #05A181)"/>
<path id="Vector_69" d="M632.352 26.6476C632.265 27.7854 632.308 29.3389 630.755 29.8641C629.376 30.3236 628.72 29.0107 627.976 28.1355C626.751 26.6914 625.46 25.2691 624.278 23.7813C622.921 22.0527 623.512 20.718 625.7 20.4335C629.136 19.974 632.199 22.731 632.352 26.6476Z" fill="var(--fill-0, #05A181)"/>
<path id="Vector_70" d="M772.454 49.3598C772.41 48.3533 772.322 47.0842 772.322 45.8151C772.3 42.1829 773.241 41.614 776.501 43.277C779.39 44.7648 780.615 49.1191 778.799 51.6572C777.88 52.9482 776.567 54.0641 774.948 53.7359C772.826 53.2983 773.022 51.1759 772.454 49.3598Z" fill="var(--fill-0, #05A181)"/>
<path id="Vector_71" d="M782.475 68.0239C782.562 69.1617 782.847 70.6933 781.381 71.4373C780.09 72.1156 779.237 70.9122 778.361 70.1463C776.917 68.8991 775.429 67.6957 774.051 66.4047C772.432 64.895 772.826 63.4946 774.948 62.882C778.274 61.9192 781.709 64.1729 782.475 68.0239Z" fill="var(--fill-0, #05A181)"/>
<path id="Vector_72" d="M644.649 37.6317C644.693 39.1415 644.649 40.2355 644.08 41.1982C642.964 42.9924 641.148 43.3207 639.332 42.9487C637.428 42.5548 638.063 40.8263 638.041 39.5791C638.019 38.0912 638.675 36.7784 639.485 35.553C640.163 34.5246 640.732 33.0805 642.264 33.4087C643.883 33.7588 644.386 35.2029 644.605 36.7127C644.671 37.1503 644.671 37.6098 644.671 37.6317H644.649Z" fill="var(--fill-0, #05A181)"/>
<path id="Vector_73" d="M496.123 69.468C496.386 70.934 495.686 71.5904 494.329 71.3278C492.228 70.934 490.412 69.9712 489.275 68.0457C488.421 66.6016 488.728 65.1794 489.865 64.1072C491.091 62.9694 492.666 62.5318 494.373 62.8819C494.964 63.0132 495.16 63.5821 495.248 64.1291C495.554 65.9014 495.839 67.6738 496.123 69.4461V69.468Z" fill="var(--fill-0, #05A181)"/>
<path id="Vector_74" d="M833.435 110.254C833.697 111.72 832.997 112.376 831.641 112.113C829.54 111.72 827.724 110.757 826.586 108.831C825.733 107.387 826.039 105.965 827.177 104.893C828.402 103.755 829.978 103.317 831.684 103.667C832.275 103.799 832.472 104.368 832.56 104.915C832.866 106.687 833.15 108.459 833.435 110.232V110.254Z" fill="var(--fill-0, #05A181)"/>
<path id="Vector_75" d="M1264.05 111.479C1263.13 118.043 1261.11 124.323 1260.26 130.865C1259.47 136.992 1258.53 143.074 1258.88 149.288C1259.06 152.242 1259.56 155.021 1260.76 157.712C1262.47 161.542 1263.67 165.546 1264.61 169.615C1264.94 170.994 1265.27 172.504 1263.67 173.182C1262.05 173.882 1260.87 172.788 1260.06 171.497C1257.57 167.559 1255.82 163.27 1254.53 158.806C1253.08 153.84 1251.81 148.807 1249.52 144.125C1249.43 143.971 1249.43 143.753 1249.32 143.621C1243.59 136.838 1243.3 127.473 1238.51 120.384C1235.01 115.22 1234.44 109.466 1233.06 103.799C1230.66 93.821 1227.88 83.9529 1223.74 74.5005C1222.43 71.4809 1222.06 68.1988 1221.14 65.048C1220.94 64.3916 1220.81 63.407 1221.66 63.1444C1222.76 62.7943 1223.78 66.711 1224.09 67.7612C1224.24 68.2645 1229.56 78.8328 1231.36 82.1149C1234.35 87.607 1237.39 93.1209 1238.44 99.4225C1238.51 99.8601 1238.75 100.276 1238.99 100.67C1239.17 100.954 1239.5 101.151 1240.22 101.807C1240.41 98.7879 1240.61 96.2279 1240.7 93.6679C1241.03 84.6968 1241.53 75.7258 1242.82 66.8204C1243 65.5732 1243.37 64.3479 1243.81 63.1444C1244.09 62.3567 1244.33 61.197 1245.51 61.3721C1246.45 61.5253 1246.48 62.5536 1246.72 63.3195C1247.7 66.3828 1247.04 69.4679 1246.76 72.5093C1246.15 79.0516 1246.56 85.5721 1246.98 92.0925C1247.46 99.6194 1248.2 107.124 1246.96 114.63C1246.34 118.349 1247.44 121.828 1248.47 125.307C1249.23 127.911 1249.95 130.537 1250.74 133.162C1251.03 134.081 1251.09 135.372 1252.38 135.35C1253.96 135.329 1253.76 133.819 1253.85 132.856C1254.26 129.071 1254.53 125.263 1254.92 121.478C1255.69 113.907 1256.37 106.293 1258.55 98.9411C1258.88 97.8252 1258.55 96.7968 1258.23 95.7465C1257.17 92.3769 1256.12 88.9854 1255.12 85.5939C1254.86 84.7406 1254.55 83.756 1255.47 83.0995C1256.41 82.4431 1257.24 83.0558 1257.94 83.6028C1259.38 84.7406 1260.81 85.7909 1262.62 86.316C1263.45 86.5567 1263.94 87.3225 1264.15 88.1321C1265.64 93.821 1268.88 98.7442 1271.42 103.952C1276.67 114.783 1278.79 126.27 1279.49 138.173C1279.97 146.05 1280.5 153.949 1280.46 161.848C1280.43 167.034 1280.02 172.176 1278.75 177.23C1278.33 178.937 1277.59 180.468 1276.78 182C1276.39 182.722 1275.95 183.532 1274.99 183.422C1273.98 183.313 1273.85 182.35 1273.69 181.562C1272.91 177.821 1272.6 174.014 1272.4 170.206C1271.9 159.594 1271.59 148.982 1271.07 138.37C1270.65 129.683 1268.75 121.303 1265.38 113.273C1265.12 112.638 1265.07 111.807 1263.98 111.435L1264.05 111.479Z" fill="var(--fill-0, #05A181)"/>
<path id="Vector_76" d="M1037.38 151.542C1036.73 147.582 1036.66 144.278 1036.57 140.996C1036.31 131.478 1037.76 121.85 1035.87 112.463C1033.53 100.801 1037.93 89.8608 1038.78 78.5704C1039.31 71.8093 1040.71 65.092 1042.55 58.5059C1042.99 56.9086 1043.31 55.2019 1044.87 53.6703C1045.9 57.8714 1045.44 61.7442 1045.26 65.5733C1044.89 73.7567 1043.12 81.765 1041.5 89.7733C1039.9 97.6941 1038.32 105.549 1038.74 113.754C1039.46 127.955 1039.73 142.155 1042.33 156.203C1042.94 159.463 1043.01 162.898 1042.2 166.224C1041.87 167.537 1041.3 168.587 1039.88 168.981C1038.43 169.375 1037.43 168.653 1036.51 167.69C1035.48 166.618 1034.89 165.283 1034.3 163.949C1031.83 158.347 1030.29 152.461 1028.83 146.553C1028.13 143.687 1027.54 143.6 1025.35 145.569C1023.47 147.254 1022.75 149.267 1022.64 151.827C1022.4 158.172 1022.48 164.539 1021.02 170.775C1020.56 172.723 1020.14 174.692 1019.11 176.421C1018.44 177.558 1017.52 178.477 1016.05 178.302C1014.54 178.127 1013.95 176.989 1013.64 175.698C1013.01 173.095 1013.03 170.469 1013.38 167.843C1013.88 164.145 1014.67 160.448 1016.25 157.078C1018.7 151.892 1018.92 146.597 1017.82 141.149C1016.33 133.731 1015.72 126.226 1015.92 118.678C1015.96 116.686 1015.5 114.958 1014.26 113.361C1012.44 111.019 1011.54 108.262 1011.17 105.33C1010.25 98.3724 1007.74 91.7863 1006.23 84.9596C1005.5 81.6775 1004.74 78.4173 1004.1 75.1133C1003.97 74.3912 1003.6 73.2972 1004.61 72.969C1005.35 72.7064 1005.85 73.6035 1006.27 74.1724C1009.38 78.2641 1011.61 82.8153 1013.12 87.7165C1014.76 93.0991 1016.4 98.4818 1018.11 103.843C1018.41 104.783 1018.37 106.381 1019.79 106.271C1021.02 106.184 1021.1 104.696 1021.48 103.689C1022.46 100.954 1022.02 98.1098 1022 95.3091C1021.91 84.7407 1022.72 74.2818 1025.2 63.976C1025.5 62.6632 1026.05 61.3941 1026.55 60.1251C1026.75 59.6218 1027.06 59.0091 1027.69 59.1404C1028.3 59.2717 1028.35 59.95 1028.41 60.4751C1029.24 68.2428 1029.51 76.0323 1029.31 83.8655C1029 95.9217 1026.62 107.781 1025.98 119.815C1025.48 129.333 1029.07 137.561 1033.49 145.591C1034.5 147.429 1035.11 149.573 1037.47 151.542H1037.38Z" fill="var(--fill-0, #05A181)"/>
<path id="Vector_77" d="M1342.93 132.878C1339.66 142.593 1338.18 152.374 1333.82 161.257C1333.28 162.373 1333.06 164.474 1331.39 163.97C1329.95 163.555 1330.41 161.564 1330.52 160.295C1331.5 148.873 1333.87 137.692 1336.47 126.555C1338.26 118.918 1340.56 111.479 1343.95 104.411C1344.65 102.945 1345.66 101.654 1346.6 100.298C1346.97 99.7727 1347.5 99.3132 1348.22 99.5758C1348.96 99.8603 1349.05 100.604 1348.88 101.195C1346.49 109.291 1350.08 116.971 1350.45 124.87C1350.8 132.309 1351.2 139.727 1350.5 147.166C1349.49 157.822 1348.44 168.456 1349.51 179.177C1349.86 182.766 1349.97 186.442 1349.29 190.03C1349.1 191.102 1348.92 192.196 1348.55 193.203C1347.94 194.822 1347.17 196.879 1345.31 196.835C1343.21 196.77 1342.29 194.713 1341.85 192.787C1340.37 186.508 1340.93 180.184 1341.42 173.839C1342.14 163.97 1344.39 154.277 1344.3 144.344C1344.26 140.624 1343.6 136.948 1342.97 132.856L1342.93 132.878Z" fill="var(--fill-0, #05A181)"/>
<path id="Vector_78" d="M1390.87 96.9501C1392 102.683 1392.7 108.437 1392.81 114.236C1392.9 119.312 1392.81 124.388 1392.75 129.465C1392.7 133.206 1392.4 136.904 1391.04 140.449C1390.49 141.849 1390.56 143.315 1390.56 144.759C1390.6 152.199 1387.41 158.238 1382.51 163.533C1382.27 163.795 1382 164.058 1381.74 164.299C1377.8 167.887 1375.92 171.979 1376.97 177.58C1377.98 182.919 1377.69 188.433 1376.99 193.859C1376.88 194.756 1376.75 195.654 1376.49 196.529C1376.23 197.448 1375.61 198.17 1374.61 198.279C1373.47 198.41 1372.73 197.732 1372.27 196.769C1371.11 194.406 1371.09 191.824 1371.09 189.308C1371.09 185.129 1371.65 180.972 1372.53 176.88C1373.27 173.423 1373.19 170.075 1372.27 166.662C1370.36 159.551 1368.88 152.374 1368.31 145C1368.02 141.28 1368.48 137.736 1370.08 134.388C1371.39 131.587 1371.81 128.721 1371.48 125.657C1370.54 116.708 1369.9 107.759 1371.04 98.7661C1371.3 96.6 1371.79 94.4775 1372.27 92.3551C1372.4 91.7206 1372.38 90.6922 1373.36 90.7578C1374.06 90.8016 1374.21 91.6112 1374.32 92.2457C1375.83 100.473 1377.26 108.766 1377.01 117.124C1376.69 128.086 1377.17 139.048 1376.82 150.011C1376.73 152.505 1377.52 155.021 1377.93 157.537C1378.11 158.588 1378.59 159.047 1379.55 158.15C1381.83 156.006 1383.69 153.686 1384.02 150.339C1384.72 143.293 1386.18 136.401 1387.98 129.53C1390.36 120.45 1390.1 110.997 1389.97 101.654C1389.95 100.057 1389.66 98.4379 1390.87 96.9938V96.9501Z" fill="var(--fill-0, #05A181)"/>
<path id="Vector_79" d="M974.083 82.0493C974.215 78.0671 974.346 74.0629 974.521 70.0806C974.543 69.3367 974.346 68.2208 975.506 68.177C976.381 68.177 976.49 69.1616 976.644 69.8399C978.919 81.1303 981.807 92.3989 981.873 103.952C981.939 113.273 983.12 122.55 982.376 131.893C982.004 136.401 983.602 140.843 984.28 145.328C985.768 155.152 986.512 164.977 984.083 174.779C983.383 177.602 982.464 180.359 980.954 182.875C980.298 183.991 979.335 185.063 977.935 184.866C976.403 184.669 976.512 183.138 976.359 182.044C975.287 174.21 974.937 166.333 974.74 158.456C974.324 142.33 973.887 126.204 973.799 110.057C973.755 100.713 974.368 91.3924 974.696 82.0493H974.083Z" fill="var(--fill-0, #05A181)"/>
<path id="Vector_80" d="M1206.87 178.521C1206.81 179.637 1207.05 180.687 1205.95 181.081C1204.95 181.431 1204.2 180.731 1203.57 180.096C1200.57 177.055 1198.8 173.248 1197.2 169.397C1194.31 162.482 1192.58 155.284 1192.3 147.735C1192.01 139.88 1189.43 132.418 1187.97 124.76C1187.38 121.719 1186.59 118.743 1185.67 115.811C1183.44 108.722 1183.72 101.26 1182.61 94.018C1182.08 90.6484 1181.36 87.4757 1183.59 84.1061C1184.79 82.29 1184.18 79.3361 1184.6 76.9292C1184.93 75.0038 1185.08 72.0499 1186.98 71.9405C1188.49 71.8748 1188.23 74.96 1188.4 76.6448C1188.95 82.0493 1189.32 87.4976 1189.65 92.924C1190 98.4598 1190.79 103.908 1191.73 109.378C1195.69 132.003 1202.65 153.971 1206.54 176.617C1206.67 177.339 1206.81 178.04 1206.89 178.543L1206.87 178.521Z" fill="var(--fill-0, #077850)"/>
<path id="Vector_81" d="M1167.95 61.5472C1169.39 72.9908 1173.77 83.6904 1172.61 95.134C1171.88 102.18 1171.49 109.225 1171.03 116.271C1170.35 126.555 1173.26 136.401 1174.62 146.444C1175.91 156.05 1179.26 165.086 1181.25 174.473C1181.56 175.895 1181.73 177.339 1181.51 178.805C1181.38 179.681 1180.88 180.337 1179.96 180.468C1178.95 180.622 1178.43 179.921 1178.21 179.112C1177.84 177.711 1177.6 176.289 1177.35 174.845C1175.1 162.307 1171.1 150.229 1167.84 137.976C1165.54 129.355 1164.51 120.515 1163.77 111.676C1162.43 95.7685 1163.81 79.9926 1166.65 64.3261C1166.81 63.4946 1166.7 62.4881 1168.03 61.5691L1167.95 61.5472Z" fill="var(--fill-0, #05A181)"/>
<path id="Vector_82" d="M1124.95 100.911C1125.41 109.685 1124.29 119.246 1123.13 128.808C1122.5 134.082 1122.78 139.311 1123.05 144.562C1123.29 149.113 1123.27 153.665 1122.26 158.106C1121.76 160.382 1121.32 163.489 1118.56 163.489C1115.59 163.489 1115.17 160.251 1114.84 157.91C1114.05 152.221 1114.32 146.51 1114.95 140.799C1116.2 129.443 1118.85 118.174 1117.73 106.665C1116.96 98.7881 1116.92 90.8892 1116.72 82.9903C1116.64 79.5988 1117.18 76.2948 1118.06 73.0346C1118.25 72.2688 1118.23 71.2185 1119.31 71.1747C1120.2 71.131 1120.31 72.0937 1120.62 72.7283C1122.78 77.1263 1123.2 81.9619 1124.03 86.6881C1124.82 91.0861 1124.78 95.5498 1124.91 100.889L1124.95 100.911Z" fill="var(--fill-0, #88CA9B)"/>
<path id="Vector_83" d="M1324.33 188.061C1324.33 189.965 1324.15 191.584 1323.6 193.137C1323.04 194.691 1321.81 195.413 1320.21 195.369C1318.68 195.325 1317.96 194.231 1317.81 192.853C1316.1 177.274 1310.08 162.614 1307.98 147.122C1307.85 146.16 1307.57 145.131 1307.08 144.278C1301.07 133.622 1298.35 121.828 1295.05 110.232C1293.74 105.615 1292.64 100.91 1291.48 96.2499C1291.26 95.4184 1290.72 94.3244 1291.83 93.843C1292.93 93.3835 1293.34 94.5651 1293.87 95.2434C1296.43 98.5255 1297.83 102.355 1299.1 106.249C1300.63 110.997 1301.92 115.833 1304.55 120.144C1305.09 121.041 1305.33 122.222 1305.38 123.272C1305.55 127.649 1307.04 131.675 1309.05 135.438C1311.75 140.536 1313.65 145.831 1314.81 151.498C1316.41 159.441 1319.56 166.924 1321.85 174.67C1323.17 179.134 1323.89 183.685 1324.37 188.039L1324.33 188.061Z" fill="var(--fill-0, #077850)"/>
<path id="Vector_84" d="M1415.87 103.558C1416.88 106.49 1418.04 109.356 1418.89 112.332C1424.32 131.171 1428.96 150.229 1433.8 169.222C1436.11 178.368 1437.84 187.645 1439.83 196.879C1440.1 198.082 1440.21 199.395 1438.92 199.986C1437.67 200.555 1436.92 199.461 1436.25 198.607C1430.23 191.081 1427.43 182.241 1425.7 172.941C1425.15 170.075 1425.02 167.165 1424.78 164.277C1423.88 153.533 1420.38 143.359 1418.06 132.922C1416.01 123.666 1415.04 114.301 1414.98 104.849C1414.98 104.433 1414.91 103.908 1415.87 103.558Z" fill="var(--fill-0, #88CA9B)"/>
<path id="Vector_85" d="M1243 179.506C1242.71 172.241 1239.74 166.093 1236.87 159.923C1235.23 156.378 1233.68 152.811 1232.89 148.938C1232.58 147.385 1231.71 146.094 1231.03 144.716C1224.33 131.325 1219.72 117.19 1216.48 102.639C1215.21 96.9064 1214.55 91.0205 1214.42 85.0908C1214.42 84.2813 1214.09 83.231 1215.16 83.0341C1216.56 82.7934 1216.32 84.1281 1216.52 84.9158C1217.26 88.1104 1216.81 91.4362 1217.64 94.6308C1217.88 95.5279 1217.92 96.5563 1219.08 96.6657C1221.38 96.8626 1221.66 98.4818 1221.53 100.167C1221.2 104.674 1222.73 108.656 1224.55 112.682C1228.23 120.888 1231.42 129.29 1234.03 137.911C1235.16 141.718 1237.35 144.912 1239.12 148.37C1242.01 154.015 1244.22 160.032 1246.08 166.093C1248.27 173.204 1250.72 180.25 1252.3 187.536C1252.49 188.477 1253.24 189.615 1252.3 190.337C1251.27 191.124 1250.22 190.162 1249.34 189.615C1245.49 187.23 1242.06 184.56 1243.06 179.506H1243Z" fill="var(--fill-0, #88CA9B)"/>
<path id="Vector_86" d="M1079.09 151.761C1079.13 150.229 1079.15 148.676 1079.24 147.144C1079.57 141.061 1079.37 135.022 1078.39 128.983C1077.58 123.929 1079.24 118.874 1079.37 113.798C1079.39 112.617 1079.77 111.369 1079.5 110.275C1077.56 102.355 1079.92 94.39 1079.13 86.4692C1078.85 83.581 1079.33 80.649 1080.42 77.9139C1080.8 76.9949 1081.25 75.8352 1082.37 75.8571C1083.75 75.879 1083.6 77.345 1083.68 78.1984C1084.71 89.3137 1085.89 100.407 1085.39 111.61C1085.19 116.074 1084.65 120.428 1083.88 124.826C1083.14 129.049 1085.02 133.206 1085.37 137.451C1085.87 143.687 1086.72 149.901 1087.16 156.137C1087.47 160.863 1088.21 165.502 1089 170.163C1089.26 171.716 1090.01 173.685 1088.15 174.582C1086.11 175.545 1084.43 174.254 1083.29 172.591C1080.66 168.784 1080.05 164.342 1079.64 159.901C1079.39 157.187 1079.48 154.452 1079.42 151.739C1079.31 151.739 1079.2 151.739 1079.11 151.739L1079.09 151.761Z" fill="var(--fill-0, #077850)"/>
<path id="Vector_87" d="M1096.37 164.211C1095.87 158.697 1097.47 153.052 1098.61 147.363C1099.57 142.527 1100.18 137.67 1098.98 132.79C1098.1 129.311 1098.98 125.942 1099.35 122.528C1100.16 114.63 1099.31 106.753 1099.46 98.8536C1099.57 94.0618 1099.33 89.2262 1100.6 84.5218C1100.93 83.2746 1101.32 82.0931 1102.02 80.999C1102.41 80.4083 1102.76 79.5768 1103.62 79.73C1104.54 79.905 1104.43 80.824 1104.49 81.5023C1105.04 87.7383 1105.67 93.9524 1106.02 100.188C1106.26 104.171 1106.57 108.153 1107.25 112.091C1107.6 114.17 1107.42 116.161 1106.83 118.24C1105.43 123.229 1104.4 128.305 1105.56 133.534C1106.05 135.679 1105.43 137.692 1104.58 139.617C1103.07 143.009 1102.68 146.553 1102.74 150.251C1102.87 156.225 1103.55 162.22 1102.63 168.193C1102.3 170.338 1102.48 173.445 1099.42 173.313C1096.26 173.182 1096.64 170.075 1096.44 167.778C1096.35 166.684 1096.37 165.611 1096.35 164.145L1096.37 164.211Z" fill="var(--fill-0, #05A181)"/>
<path id="Vector_88" d="M1204.18 68.177C1204.44 72.4219 1204.09 76.5354 1203.04 80.5396C1201.27 87.3444 1202.85 93.8649 1204.27 100.407C1205.67 106.884 1208.93 112.901 1209.74 119.465C1211.2 131.39 1215.21 142.549 1219.12 153.774C1221.71 161.148 1223.17 168.828 1224.27 176.574C1224.33 177.099 1224.35 177.668 1224.27 178.193C1224.14 179.002 1224.03 179.965 1223.06 180.14C1222.01 180.315 1221.79 179.287 1221.47 178.565C1218.77 172.744 1217.55 166.509 1216.35 160.273C1215.3 154.934 1214.49 149.551 1213.48 144.212C1212.91 141.149 1211.77 138.304 1210.02 135.701C1209.52 134.957 1208.99 134.125 1208.86 133.272C1206.96 121.041 1201.66 110.122 1196 99.335C1195.3 98.0003 1192.96 96.3374 1196.04 94.8057C1196.59 94.5213 1196.13 93.4273 1195.95 92.749C1194.38 86.6224 1195.91 80.9115 1198.25 75.2663C1199.48 72.3125 1202.08 70.5401 1204.22 68.177H1204.18Z" fill="var(--fill-0, #05A181)"/>
<path id="Vector_89" d="M1004.17 107.847C1004.3 121.194 1004.54 132.55 1003.25 143.818C1002.9 146.772 1002.18 149.704 1001.52 152.614C1001.13 154.365 1000.32 156.137 998.262 156.093C995.942 156.05 995.461 153.927 995.22 152.177C994.695 148.282 994.98 144.387 995.724 140.536C996.424 136.97 997.211 133.425 998.459 130.012C1000.17 125.373 1000.32 120.647 999.487 115.811C997.933 106.862 996.861 97.8691 997.058 88.7668C997.146 84.9158 997.977 81.2179 999.356 77.6295C999.662 76.8199 999.99 75.7259 1001.13 75.8791C1002.11 76.0104 1002.11 77.1044 1002.24 77.8702C1002.55 79.555 1002.9 81.2836 1002.94 82.9903C1003.14 91.9613 1004.37 100.889 1004.17 107.869V107.847Z" fill="var(--fill-0, #077850)"/>
<path id="Vector_90" d="M1162.02 166.596C1162.06 168.872 1162.13 171.125 1162.15 173.401C1162.15 174.407 1162.15 175.523 1160.94 175.873C1159.59 176.289 1158.95 175.283 1158.45 174.298C1156.06 169.659 1155.5 164.561 1155.28 159.507C1154.99 153.118 1152.56 147.122 1152.15 140.777C1152.15 140.514 1152.08 140.208 1151.93 139.989C1147.2 133.337 1148.73 125.329 1147.22 117.999C1146 112.07 1145.01 106.074 1143.94 100.101C1143.79 99.2913 1143 98.1316 1144.25 97.7596C1145.23 97.4752 1145.3 98.7661 1145.71 99.4225C1151.21 108.109 1153.22 118.043 1156 127.714C1159.63 140.405 1161.14 153.468 1161.99 166.618L1162.02 166.596Z" fill="var(--fill-0, #05A181)"/>
<path id="Vector_91" d="M1361.74 85.7472C1362.55 86.5787 1362.25 87.6289 1362.29 88.5698C1362.73 99.16 1361.24 109.575 1359.49 119.968C1358.42 126.401 1357.34 132.856 1356.93 139.398C1356.78 141.696 1357.32 143.906 1357.45 146.181C1357.72 150.776 1358.24 155.328 1357.85 160.01C1357.28 166.574 1359.29 172.963 1360.1 179.44C1360.71 184.297 1361.22 189.177 1361.74 194.034C1361.94 195.872 1361.65 197.667 1360.69 199.286C1360.01 200.445 1359.31 200.445 1358.79 199.22C1358.04 197.47 1357.59 195.61 1357.28 193.728C1355.4 182.503 1355.16 171.169 1355.11 159.813C1355.09 153.905 1354.74 147.998 1353.52 142.221C1352.66 138.195 1353.08 134.322 1353.67 130.34C1355.38 119.028 1356.84 107.693 1358.5 96.3812C1358.92 93.5148 1359.69 90.6922 1360.36 87.8696C1360.56 87.0382 1360.52 86.0098 1361.74 85.7472Z" fill="var(--fill-0, #077850)"/>
<path id="Vector_92" d="M1065.74 80.277C1067.03 81.1523 1067.27 82.4651 1067.56 83.6686C1070.77 97.8691 1073.47 112.113 1071.43 126.795C1070.88 130.756 1071.78 134.76 1071.06 138.742C1069.94 144.934 1066.66 149.792 1062.46 154.212C1062.09 154.606 1061.63 154.912 1061.17 155.218C1059.92 156.05 1058.46 156.859 1057.16 155.765C1056 154.781 1056.95 153.358 1057.43 152.242C1058.04 150.842 1058.67 149.289 1059.72 148.238C1064.12 143.84 1065.65 138.304 1065.11 132.528C1064.36 124.695 1067.34 117.343 1067.21 109.597C1067.05 100.363 1068.1 91.0861 1065.43 82.0056C1065.28 81.5024 1065.15 80.9335 1065.72 80.277H1065.74Z" fill="var(--fill-0, #05A181)"/>
<path id="Vector_93" d="M1054.41 123.907C1054.69 125.285 1054.45 126.795 1053.77 128.393C1052.99 130.187 1053.44 132.134 1053.71 134.016C1054.17 137.276 1054.3 140.514 1053.62 143.753C1053.38 144.847 1053.01 145.853 1052.18 146.619C1050.67 148.041 1049.22 147.647 1048.83 145.613C1048.43 143.578 1048.13 141.477 1048.11 139.42C1047.93 125.373 1048.35 111.369 1052.02 97.6503C1053.12 93.6024 1054.6 89.7295 1056.18 85.8785C1056.38 85.3971 1056.55 84.6751 1057.19 84.7626C1058.02 84.872 1057.93 85.7253 1057.89 86.3161C1057.62 89.6639 1057.34 92.9897 1056.95 96.3156C1056.4 101.02 1056.64 105.724 1056.79 110.45C1056.86 112.77 1056.53 114.958 1055.41 117.015C1054.28 119.093 1054.23 121.347 1054.43 123.929L1054.41 123.907Z" fill="var(--fill-0, #88CA9B)"/>
<path id="Vector_94" d="M1133.2 103.186C1134.27 108.35 1134.12 113.339 1134.36 118.305C1135.08 134.169 1135.8 150.054 1136.48 165.918C1136.57 167.734 1136.48 169.55 1136.35 171.344C1136.31 172.022 1136.07 172.876 1135.12 172.898C1134.38 172.898 1134.1 172.197 1133.86 171.629C1132.83 169.265 1132.43 166.749 1132.08 164.233C1130.49 152.702 1129.22 141.149 1129.68 129.508C1129.98 121.631 1130.07 113.711 1131.76 105.943C1131.95 105.024 1131.82 103.908 1133.22 103.186H1133.2Z" fill="var(--fill-0, #077850)"/>
<path id="Vector_95" d="M1400.97 104.871C1402.97 107.103 1402.94 109.794 1403.58 112.266C1405.13 118.24 1406.05 124.366 1408.04 130.23C1408.33 131.062 1408.61 132.112 1408.37 132.9C1406.18 140.186 1408.3 147.45 1408.37 154.693C1408.37 156.334 1408.65 157.953 1408.7 159.572C1408.7 160.644 1408.57 161.76 1408.35 162.811C1408.02 164.299 1407.01 165.327 1405.46 165.174C1404.02 165.042 1404.17 163.598 1404.06 162.57C1402.97 151.739 1401.96 140.886 1400.8 130.055C1399.99 122.528 1400.21 115.023 1400.69 107.496C1400.76 106.621 1400.89 105.746 1401 104.849L1400.97 104.871Z" fill="var(--fill-0, #05A181)"/>
<path id="Vector_96" d="M1297.74 181.453C1297.79 183.619 1297.98 185.807 1297.83 187.973C1297.74 189.242 1297.61 191.212 1296.06 191.255C1294.37 191.321 1294.39 189.308 1294.22 188.061C1293.45 182.875 1292.82 177.646 1292.14 172.438C1290.65 161.038 1289.16 149.617 1287.7 138.217C1287.46 136.335 1287.28 134.431 1287.09 132.55C1287.02 131.915 1286.8 131.128 1287.65 130.974C1288.42 130.821 1288.66 131.631 1288.9 132.2C1290.37 135.613 1291.59 139.158 1292.45 142.768C1295.49 155.481 1297.24 168.39 1297.76 181.453H1297.74Z" fill="var(--fill-0, #05A181)"/>
<path id="Vector_97" d="M1154.95 78.264C1155.08 80.2989 1154.77 82.2682 1154.29 84.2155C1154.14 84.8501 1153.9 85.5065 1153.15 85.5721C1152.48 85.6378 1152.34 85.0251 1152.13 84.5C1148.69 76.3823 1146.55 67.8488 1143.81 59.4904C1143.61 58.8997 1143.33 58.1995 1144.07 57.7837C1144.66 57.4555 1145.12 57.915 1145.47 58.3089C1150.73 63.9541 1154.58 70.2995 1154.97 78.2421L1154.95 78.264Z" fill="var(--fill-0, #05A181)"/>
<path id="Vector_98" d="M1395.44 169.922C1395.48 176.005 1395.59 181.606 1395.5 187.186C1395.46 190.162 1396.23 193.159 1395.46 196.135C1395.31 196.704 1395.42 197.535 1394.61 197.667C1393.99 197.776 1393.67 197.207 1393.36 196.769C1388.72 189.877 1389.16 176.377 1395.44 169.9V169.922Z" fill="var(--fill-0, #077850)"/>
<path id="Vector_99" d="M1402.72 210.904C1402.33 204.843 1401.89 199.264 1401.65 193.662C1401.52 190.687 1400.58 187.733 1401.17 184.735C1401.28 184.144 1401.15 183.335 1401.94 183.138C1402.55 182.985 1402.9 183.532 1403.23 183.969C1408.26 190.577 1408.61 204.099 1402.72 210.904Z" fill="var(--fill-0, #077850)"/>
<path id="Vector_100" d="M1091.74 73.9754C1087.51 73.8878 1083.79 69.271 1084.65 65.1356C1084.91 63.8228 1085.5 62.7287 1086.99 62.5099C1088.39 62.2911 1089.68 62.3349 1090.6 63.6696C1092.22 65.9889 1093.42 68.5052 1093.99 71.2841C1094.47 73.6034 1094.08 74.0191 1091.71 73.9754H1091.74Z" fill="var(--fill-0, #05A181)"/>
<path id="Vector_101" d="M1070.95 56.4271C1070.95 58.1557 1070.66 59.6873 1069.05 60.4531C1067.32 61.2846 1065.92 60.5188 1064.65 59.2935C1060.97 55.7488 1061.43 51.132 1065.63 49.3378C1067.23 48.6595 1068.45 48.9439 1069.24 50.5631C1070.16 52.4448 1070.66 54.4579 1070.93 56.4271H1070.95Z" fill="var(--fill-0, #05A181)"/>
<path id="Vector_102" d="M1116.22 6.69252C1116.33 5.68601 1116.44 4.41693 1116.64 3.16974C1117.16 -0.418682 1118.19 -0.834414 1121.14 1.28801C1123.77 3.19162 1124.34 7.67715 1122.15 9.93085C1121.03 11.0686 1119.59 11.9657 1118.01 11.3968C1115.98 10.6529 1116.5 8.57425 1116.22 6.69252Z" fill="var(--fill-0, #05A181)"/>
<path id="Vector_103" d="M1063.42 67.1268C1063.42 67.7613 1063.49 68.3959 1063.44 69.0304C1063.38 70.1463 1063.88 71.5904 1062.42 72.1156C1061.04 72.6188 1059.75 72.0499 1058.65 71.1309C1055.63 68.5928 1056.07 63.6915 1059.42 62.2693C1061.93 61.219 1063.23 61.9848 1063.36 64.6761C1063.4 65.4857 1063.4 66.3172 1063.42 67.1268Z" fill="var(--fill-0, #05A181)"/>
<path id="Vector_104" d="M1297.83 82.0931C1297.83 82.7277 1297.89 83.3622 1297.85 83.9968C1297.79 85.1127 1298.29 86.5568 1296.82 87.0819C1295.44 87.5852 1294.15 87.0163 1293.06 86.0973C1290.04 83.5591 1290.48 78.6579 1293.82 77.2356C1296.34 76.1854 1297.63 76.9512 1297.76 79.6425C1297.81 80.4521 1297.81 81.2836 1297.83 82.0931Z" fill="var(--fill-0, #05A181)"/>
<path id="Vector_105" d="M1413.6 169.616C1413.77 170.031 1414.02 170.447 1414.1 170.885C1414.34 172.044 1415.72 173.313 1414.45 174.364C1413.27 175.326 1411.67 174.911 1410.27 174.407C1407.98 173.554 1406.47 170.556 1407.1 168.15C1407.52 166.618 1408.54 165.677 1410.14 165.436C1411.81 165.196 1412.31 166.399 1412.79 167.603C1413.07 168.281 1413.34 168.937 1413.62 169.616H1413.58H1413.6Z" fill="var(--fill-0, #05A181)"/>
<path id="Vector_106" d="M1123.29 26.6476C1123.2 27.7854 1123.24 29.3389 1121.69 29.8641C1120.31 30.3236 1119.66 29.0107 1118.91 28.1355C1117.69 26.6914 1116.4 25.2691 1115.21 23.7813C1113.86 22.0527 1114.45 20.718 1116.64 20.4335C1120.07 19.974 1123.13 22.731 1123.29 26.6476Z" fill="var(--fill-0, #05A181)"/>
<path id="Vector_107" d="M1263.41 49.3598C1263.37 48.3533 1263.28 47.0842 1263.28 45.8151C1263.26 42.1829 1264.2 41.614 1267.46 43.277C1270.35 44.7648 1271.57 49.1191 1269.76 51.6572C1268.84 52.9482 1267.52 54.0641 1265.91 53.7359C1263.78 53.2983 1263.98 51.1759 1263.41 49.3598Z" fill="var(--fill-0, #05A181)"/>
<path id="Vector_108" d="M1273.41 68.0239C1273.5 69.1617 1273.78 70.6933 1272.32 71.4373C1271.03 72.1156 1270.17 70.9122 1269.3 70.1463C1267.85 68.8991 1266.36 67.6957 1264.99 66.4047C1263.37 64.895 1263.76 63.4946 1265.88 62.882C1269.21 61.9192 1272.64 64.1729 1273.41 68.0239Z" fill="var(--fill-0, #05A181)"/>
<path id="Vector_109" d="M1135.58 37.6317C1135.63 39.1415 1135.58 40.2355 1135.02 41.1982C1133.9 42.9924 1132.08 43.3207 1130.27 42.9487C1128.36 42.5548 1129 40.8263 1128.98 39.5791C1128.95 38.0912 1129.61 36.7784 1130.42 35.553C1131.1 34.5246 1131.67 33.0805 1133.2 33.4087C1134.82 33.7588 1135.32 35.2029 1135.54 36.7127C1135.61 37.1503 1135.61 37.6098 1135.61 37.6317H1135.58Z" fill="var(--fill-0, #05A181)"/>
<path id="Vector_110" d="M987.081 69.468C987.343 70.934 986.643 71.5904 985.286 71.3278C983.186 70.934 981.37 69.9712 980.232 68.0457C979.379 66.6016 979.685 65.1794 980.823 64.1072C982.048 62.9694 983.623 62.5318 985.33 62.8819C985.921 63.0132 986.118 63.5821 986.205 64.1291C986.512 65.9014 986.796 67.6738 987.081 69.4461V69.468Z" fill="var(--fill-0, #05A181)"/>
<path id="Vector_111" d="M1324.39 110.254C1324.65 111.72 1323.95 112.376 1322.6 112.113C1320.5 111.72 1318.68 110.757 1317.54 108.831C1316.69 107.387 1317 105.965 1318.13 104.893C1319.36 103.755 1320.93 103.317 1322.64 103.667C1323.23 103.799 1323.43 104.368 1323.52 104.915C1323.82 106.687 1324.11 108.459 1324.39 110.232V110.254Z" fill="var(--fill-0, #05A181)"/>
</g>
</svg>
