<svg preserveAspectRatio="none" width="100%" height="100%" overflow="visible" style="display: block;" viewBox="0 0 63.7008 38.7683" fill="none" xmlns="http://www.w3.org/2000/svg">
<g id="Group">
<path id="Vector" d="M4.36687 13.2667C3.53791 13.2667 2.80886 13.0984 2.17604 12.7583C1.54321 12.4181 1.05101 11.9359 0.695739 11.3116C0.340468 10.6873 0.162833 9.9472 0.162833 9.09116C0.162833 8.47063 0.266453 7.89869 0.473695 7.37909C0.680936 6.85949 0.973295 6.41465 1.35447 6.0371C1.73565 5.65955 2.18344 5.37171 2.70154 5.16611C3.21964 4.96052 3.78586 4.85959 4.40018 4.85959C5.08852 4.85959 5.65843 4.94556 6.11362 5.12126C6.56881 5.29695 6.9833 5.54366 7.36077 5.86515L6.32456 7.60338C6.10992 7.37536 5.85457 7.20714 5.55111 7.09499C5.24765 6.98285 4.91088 6.92678 4.54081 6.92678C4.19664 6.92678 3.88578 6.97537 3.61562 7.07257C3.34547 7.16976 3.11972 7.31181 2.93469 7.50245C2.74965 7.68936 2.60902 7.91738 2.5128 8.17905C2.41658 8.44072 2.36847 8.73604 2.36847 9.06126C2.36847 9.50609 2.45729 9.88739 2.63123 10.2089C2.80516 10.5266 3.05681 10.7733 3.38618 10.9415C3.71554 11.1098 4.11152 11.1995 4.57411 11.1995C4.91088 11.1995 5.25505 11.1471 5.59552 11.0387C5.93969 10.9303 6.26905 10.7621 6.58362 10.5303L7.54211 12.3022C7.17574 12.5826 6.73535 12.8144 6.21354 12.9938C5.69174 13.1732 5.07742 13.2629 4.37057 13.2629L4.36687 13.2667Z" fill="var(--fill-0, #00774F)"/>
<path id="Vector_2" d="M12.1865 13.2667C11.5685 13.2667 10.9986 13.162 10.4768 12.9489C9.95499 12.7359 9.5035 12.4405 9.11862 12.0592C8.73375 11.678 8.43399 11.2331 8.22674 10.7247C8.0195 10.2126 7.91218 9.6631 7.91218 9.065C7.91218 8.46689 8.0158 7.90991 8.22674 7.40153C8.43399 6.8894 8.73375 6.44456 9.11862 6.06701C9.5035 5.68571 9.95869 5.3904 10.4768 5.18107C10.9986 4.97173 11.5685 4.86332 12.1865 4.86332C12.8046 4.86332 13.3745 4.97173 13.8926 5.1848C14.4107 5.40162 14.8622 5.70067 15.2507 6.08196C15.6356 6.46699 15.9354 6.91182 16.15 7.42021C16.361 7.9286 16.4683 8.47811 16.4683 9.065C16.4683 9.65189 16.361 10.2126 16.15 10.7247C15.9354 11.2369 15.6393 11.6817 15.2507 12.0592C14.8659 12.4405 14.4144 12.7359 13.8926 12.9489C13.3745 13.162 12.8046 13.2667 12.1865 13.2667ZM12.1865 11.278C12.49 11.278 12.7676 11.2256 13.0229 11.121C13.2746 11.0163 13.4966 10.8705 13.6816 10.6761C13.8667 10.4818 14.011 10.25 14.1146 9.97711C14.2182 9.70422 14.2701 9.39769 14.2701 9.06126C14.2701 8.60894 14.1812 8.21644 14.0036 7.88374C13.826 7.55105 13.578 7.29686 13.2672 7.11369C12.9526 6.93426 12.5936 6.84454 12.1939 6.84454C11.8942 6.84454 11.6166 6.89687 11.3613 7.00154C11.1059 7.10621 10.8876 7.25574 10.6988 7.44638C10.5138 7.64076 10.3695 7.87253 10.2696 8.14541C10.1696 8.4183 10.1178 8.72482 10.1178 9.06126C10.1178 9.51357 10.2066 9.90608 10.3843 10.2388C10.5619 10.5715 10.8099 10.8257 11.1207 11.0088C11.4316 11.1883 11.7906 11.278 12.1939 11.278H12.1865ZM11.4908 4.3512C11.3465 4.1157 11.3058 3.92131 11.365 3.76431C11.4242 3.60731 11.5833 3.49142 11.8387 3.4204C11.983 3.37554 12.0829 3.33442 12.1421 3.30452C12.2013 3.27461 12.2309 3.22976 12.2309 3.17368C12.2309 3.12135 12.1865 3.07649 12.1014 3.04658C12.0126 3.01668 11.9053 3.00173 11.7758 3.00173C11.5981 3.00173 11.4353 3.02042 11.291 3.05406C11.1466 3.08771 11.006 3.14004 10.8691 3.21106L10.573 2.21298C10.7766 2.10084 11.0282 2.01486 11.3243 1.95505C11.6203 1.89524 11.9053 1.86533 12.1865 1.86533C12.5307 1.86533 12.8342 1.90645 13.0858 1.98495C13.3412 2.06719 13.5373 2.18308 13.6779 2.3326C13.8186 2.48213 13.8889 2.6653 13.8889 2.87837C13.8889 3.09144 13.8371 3.25966 13.7371 3.39797C13.6372 3.53628 13.4448 3.67459 13.1635 3.80917C12.9711 3.90262 12.8453 3.98486 12.7861 4.06336C12.7305 4.14186 12.7379 4.23532 12.8157 4.3512H11.4871H11.4908Z" fill="var(--fill-0, #00774F)"/>
<path id="Vector_3" d="M20.3504 13.091V5.03154H23.5589C24.3879 5.03154 25.0466 5.20349 25.5388 5.5474C26.031 5.89131 26.279 6.40344 26.279 7.08004C26.279 7.31929 26.2308 7.5361 26.1383 7.73796C26.0458 7.93982 25.9163 8.11924 25.7534 8.27251C25.5906 8.42577 25.4056 8.55661 25.202 8.66128C25.6276 8.81454 25.9681 9.07247 26.2271 9.43133C26.4825 9.7902 26.612 10.2126 26.612 10.6948C26.612 11.177 26.4899 11.6107 26.2456 11.9658C26.0014 12.3209 25.6572 12.5975 25.2094 12.7957C24.7616 12.99 24.2287 13.091 23.6107 13.091H20.3504ZM22.445 8.2912H23.2814C23.4812 8.2912 23.6551 8.25756 23.7958 8.18653C23.9364 8.11551 24.0474 8.01831 24.1251 7.88748C24.2028 7.75664 24.2435 7.59964 24.2435 7.41648C24.2435 7.14359 24.1584 6.93426 23.9882 6.78847C23.818 6.64268 23.57 6.57165 23.248 6.57165H22.445V8.29494V8.2912ZM22.445 11.5546H23.3221C23.6847 11.5546 23.9549 11.4761 24.1399 11.3228C24.325 11.1658 24.4175 10.9415 24.4175 10.6388C24.4175 10.336 24.3324 10.1266 24.1621 9.96215C23.9919 9.79767 23.7402 9.71917 23.4109 9.71917H22.4487V11.5546H22.445Z" fill="var(--fill-0, #00774F)"/>
<path id="Vector_4" d="M27.9406 13.091V5.03154H30.0389V13.091H27.9406Z" fill="var(--fill-0, #00774F)"/>
<path id="Vector_5" d="M31.8523 13.091V5.03154H37.6143V6.86323H33.9506V8.1342H36.9889V9.81636H33.9506V11.2369H37.6624V13.091H31.8523ZM31.9929 4.3512L33.773 2.34008H35.6381L37.4182 4.3512H35.3902L34.6759 3.52133L33.9506 4.3512H31.9966H31.9929ZM36.7187 2.48586C36.5744 2.25036 36.5337 2.05598 36.5929 1.89897C36.6521 1.74197 36.8113 1.62609 37.0666 1.55507C37.2109 1.51021 37.3146 1.46909 37.3701 1.43918C37.4293 1.40928 37.4589 1.36442 37.4589 1.30835C37.4589 1.25602 37.4145 1.21116 37.3294 1.18125C37.2442 1.15135 37.1332 1.13639 37.0037 1.13639C36.8261 1.13639 36.6632 1.15509 36.5189 1.18873C36.3746 1.22237 36.2339 1.27471 36.097 1.34573L35.801 0.347648C36.0045 0.235504 36.2561 0.149525 36.5522 0.089715C36.8483 0.0299047 37.1332 3.72427e-07 37.4145 3.72427e-07C37.7586 3.72427e-07 38.0621 0.0411198 38.3138 0.119621C38.5654 0.198122 38.7652 0.317743 38.9059 0.467268C39.0465 0.620532 39.1168 0.799963 39.1168 1.01304C39.1168 1.22611 39.065 1.39433 38.9651 1.53264C38.8652 1.67469 38.6727 1.80926 38.3915 1.94383C38.199 2.03729 38.0732 2.11953 38.014 2.19803C37.9585 2.27653 37.9659 2.36998 38.0436 2.48586H36.715H36.7187Z" fill="var(--fill-0, #00774F)"/>
<path id="Vector_6" d="M39.176 13.091V5.03154H41.2633L44.3016 9.66684V5.03154H46.3296V13.091H44.2423L41.204 8.38839V13.091H39.176Z" fill="var(--fill-0, #00774F)"/>
<path id="Vector_7" d="M0.29976 21.6139V16.6422H1.54321L3.36767 19.7224L2.84957 19.7299L4.57041 16.6422H5.81016V21.6139H4.56301L4.58892 18.2982L4.81466 18.3842L3.4787 20.7243H2.63123L1.23605 18.3842L1.45809 18.2982L1.484 21.6139H0.29976Z" fill="var(--fill-0, #00774F)"/>
<path id="Vector_8" d="M6.38378 21.6139L8.20084 16.6422H9.71814L11.5389 21.6139H10.0808L9.76995 20.6645H8.10832L7.80116 21.6139H6.38008H6.38378ZM8.28596 16.2235L8.9928 14.9825H10.3177L9.4924 16.2235H8.28596ZM8.39328 19.5804H9.4813L8.94099 18.0141L8.39698 19.5804H8.39328Z" fill="var(--fill-0, #00774F)"/>
<path id="Vector_9" d="M12.1088 21.6139V16.6422H13.4041V21.6139H12.1088Z" fill="var(--fill-0, #00774F)"/>
<path id="Vector_10" d="M16.1019 21.6139V16.6422H17.3898L19.2624 19.5019V16.6422H20.5132V21.6139H19.2253L17.3528 18.7131V21.6139H16.1019Z" fill="var(--fill-0, #00774F)"/>
<path id="Vector_11" d="M21.6308 21.6139V16.6422H22.9261V18.4403H24.7209V16.6422H26.0162V21.6139H24.7209V19.6327H22.9261V21.6139H21.6308Z" fill="var(--fill-0, #00774F)"/>
<path id="Vector_12" d="M26.5787 21.6139L28.3958 16.6422H29.9131L31.7338 21.6139H30.2758L29.9649 20.6645H28.3033L27.9961 21.6139H26.575H26.5787ZM28.5919 16.2235L27.7815 14.9825H29.1359L29.828 16.2235H28.5919ZM28.5882 19.5804H29.6762L29.1359 18.0141L28.5919 19.5804H28.5882Z" fill="var(--fill-0, #00774F)"/>
<path id="Vector_13" d="M33.2734 19.5729V18.5748H36.3598V19.5729H33.2734ZM34.0246 21.6139V16.6422H35.7603C36.2784 16.6422 36.7335 16.7469 37.1221 16.9562C37.5107 17.1656 37.8142 17.4571 38.0325 17.8309C38.2508 18.2048 38.3582 18.6384 38.3582 19.1281C38.3582 19.4982 38.2953 19.8383 38.1731 20.1411C38.0473 20.4439 37.8734 20.7093 37.6439 20.9261C37.4145 21.1467 37.1406 21.3149 36.8224 21.4345C36.5041 21.5541 36.1488 21.6139 35.7603 21.6139H34.0246ZM35.3162 20.3953H35.7084C35.9009 20.3953 36.0748 20.3691 36.2339 20.3168C36.3894 20.2645 36.5263 20.186 36.641 20.0776C36.7557 19.9692 36.8446 19.8383 36.9075 19.6813C36.9704 19.5243 37 19.3412 37 19.1281C37 18.8477 36.9445 18.616 36.8372 18.4253C36.7298 18.2347 36.5781 18.0926 36.382 17.9992C36.1895 17.9057 35.9638 17.8571 35.7084 17.8571H35.3162V20.3916V20.3953Z" fill="var(--fill-0, #00774F)"/>
<path id="Vector_14" d="M38.4766 21.6139L40.2937 16.6422H41.811L43.6317 21.6139H42.1736L41.8628 20.6645H40.2011L39.894 21.6139H38.4729H38.4766ZM39.387 16.2235L40.4824 14.9825H41.6333L42.7287 16.2235H41.4779L41.0375 15.7114L40.5897 16.2235H39.3833H39.387ZM40.4898 19.5804H41.5778L41.0375 18.0141L40.4935 19.5804H40.4898ZM42.1662 15.0722L41.3558 13.8311H42.7102L43.4023 15.0722H42.1662Z" fill="var(--fill-0, #00774F)"/>
<path id="Vector_15" d="M46.2518 21.7224C45.7819 21.7224 45.3896 21.6289 45.0713 21.442C44.753 21.2551 44.5125 20.9971 44.3497 20.6682C44.1868 20.3392 44.1054 19.9617 44.1054 19.5318V16.6422H45.4044V19.5916C45.4044 19.8981 45.4784 20.1224 45.6264 20.2719C45.7745 20.4215 45.9854 20.4925 46.2555 20.4925C46.5257 20.4925 46.7329 20.4177 46.881 20.2719C47.029 20.1224 47.103 19.8981 47.103 19.5916V16.6422H48.4057V19.5318C48.4057 19.9579 48.3243 20.3355 48.1614 20.6645C47.9986 20.9934 47.758 21.2513 47.4398 21.4382C47.1215 21.6252 46.7255 21.7186 46.2592 21.7186L46.2518 21.7224Z" fill="var(--fill-0, #00774F)"/>
<path id="Vector_16" d="M50.467 19.5729V18.5748H53.5534V19.5729H50.467ZM51.2145 21.6139V16.6422H52.9502C53.4683 16.6422 53.9235 16.7469 54.3121 16.9562C54.7006 17.1656 55.0041 17.4571 55.2224 17.8309C55.4408 18.2048 55.5481 18.6384 55.5481 19.1281C55.5481 19.4982 55.4852 19.8383 55.3631 20.1411C55.2372 20.4439 55.0633 20.7093 54.8339 20.9261C54.6044 21.1467 54.3306 21.3149 54.0123 21.4345C53.694 21.5541 53.3388 21.6139 52.9502 21.6139H51.2145ZM52.5098 20.3953H52.9021C53.0945 20.3953 53.2685 20.3691 53.4276 20.3168C53.583 20.2645 53.7199 20.186 53.8347 20.0776C53.9494 19.9692 54.0382 19.8383 54.1011 19.6813C54.164 19.5243 54.1936 19.3412 54.1936 19.1281C54.1936 18.8477 54.1381 18.616 54.0308 18.4253C53.9235 18.2347 53.7718 18.0926 53.5756 17.9992C53.3832 17.9057 53.1574 17.8571 52.9021 17.8571H52.5098V20.3916V20.3953Z" fill="var(--fill-0, #00774F)"/>
<path id="Vector_17" d="M58.7678 21.7224C58.3866 21.7224 58.035 21.6551 57.713 21.5242C57.3911 21.3934 57.1135 21.2102 56.873 20.9747C56.6361 20.7392 56.4511 20.4663 56.3216 20.1523C56.192 19.8383 56.1291 19.4982 56.1291 19.1281C56.1291 18.758 56.192 18.4178 56.3216 18.1001C56.4511 17.7861 56.6324 17.5095 56.873 17.2777C57.1098 17.0422 57.3911 16.8628 57.713 16.7319C58.035 16.6011 58.3866 16.5375 58.7678 16.5375C59.1489 16.5375 59.5005 16.6048 59.8225 16.7357C60.1407 16.8665 60.422 17.0534 60.6588 17.2889C60.8957 17.5244 61.0807 17.801 61.2139 18.115C61.3435 18.429 61.4101 18.7655 61.4101 19.1281C61.4101 19.4907 61.3435 19.8346 61.2139 20.1523C61.0844 20.4701 60.8994 20.743 60.6588 20.9747C60.422 21.2102 60.1407 21.3934 59.8225 21.5242C59.5042 21.6551 59.1526 21.7224 58.7678 21.7224ZM58.2089 16.2235L57.3985 14.9825H58.753L59.445 16.2235H58.2089ZM58.7678 20.4962C58.9565 20.4962 59.1267 20.4626 59.2822 20.399C59.4376 20.3355 59.5745 20.242 59.6892 20.1224C59.804 20.0028 59.8928 19.8608 59.9557 19.6925C60.0186 19.5243 60.0519 19.3374 60.0519 19.1281C60.0519 18.8477 59.9964 18.6047 59.8854 18.4029C59.7744 18.201 59.6226 18.0403 59.4302 17.9281C59.2378 17.816 59.0157 17.7599 58.7678 17.7599C58.5827 17.7599 58.4125 17.7936 58.2534 17.8571C58.0979 17.9207 57.961 18.0141 57.8463 18.1337C57.7315 18.2534 57.6427 18.3954 57.5798 18.5636C57.5169 18.7318 57.4873 18.9187 57.4873 19.1281C57.4873 19.4084 57.5428 19.6514 57.6538 19.8533C57.7649 20.0589 57.9166 20.2159 58.109 20.328C58.3015 20.4402 58.5198 20.4962 58.7715 20.4962H58.7678ZM60.8365 17.7263C60.6736 17.7263 60.5108 17.7038 60.3406 17.6552C60.1703 17.6067 60.0001 17.5506 59.8262 17.487C59.6522 17.4235 59.4746 17.3674 59.297 17.3188C59.1193 17.2702 58.9417 17.2478 58.7678 17.2478L58.7604 16.5413C58.9861 16.5413 59.1896 16.5637 59.3784 16.6086C59.5671 16.6534 59.7336 16.702 59.8854 16.7581C60.0371 16.8142 60.1703 16.8665 60.2925 16.9076C60.4109 16.9525 60.5182 16.9749 60.6107 16.9749C60.718 16.9749 60.8032 16.9487 60.8624 16.9001C60.9216 16.8515 60.9512 16.7843 60.9512 16.7058C60.9512 16.6385 60.9327 16.5562 60.892 16.4665C60.8513 16.3768 60.7847 16.2796 60.6921 16.1787L61.4323 15.7637C61.5951 15.917 61.7172 16.0815 61.7987 16.2647C61.8801 16.4478 61.9171 16.6198 61.9171 16.788C61.9171 16.9674 61.8727 17.1244 61.7802 17.2702C61.6913 17.4123 61.5655 17.5282 61.4027 17.6104C61.2398 17.6964 61.0511 17.7375 60.8365 17.7375V17.7263Z" fill="var(--fill-0, #00774F)"/>
<path id="Vector_18" d="M62.4056 21.6139V16.6422H63.7008V21.6139H62.4056Z" fill="var(--fill-0, #00774F)"/>
<path id="Vector_19" d="M2.59422 30.2453C2.08352 30.2453 1.63203 30.1406 1.24345 29.9313C0.854871 29.722 0.547709 29.4229 0.329366 29.0416C0.111022 28.6566 0 28.2006 0 27.6735C0 27.2884 0.0629126 26.9371 0.192438 26.6193C0.318264 26.3016 0.4996 26.025 0.736447 25.7932C0.969594 25.5614 1.24715 25.382 1.56541 25.2549C1.88368 25.1278 2.23525 25.0643 2.61272 25.0643C3.03831 25.0643 3.38988 25.1166 3.66743 25.225C3.94869 25.3334 4.20404 25.4867 4.43719 25.6848L3.79696 26.7576C3.66743 26.6193 3.5083 26.5146 3.31956 26.4436C3.13453 26.3726 2.92358 26.339 2.69414 26.339C2.4795 26.339 2.29076 26.3689 2.12422 26.4287C1.95769 26.4885 1.81706 26.5782 1.70234 26.6941C1.58762 26.81 1.5025 26.9483 1.44329 27.1128C1.38408 27.2735 1.35447 27.4567 1.35447 27.6585C1.35447 27.9314 1.40998 28.1669 1.5173 28.365C1.62462 28.5631 1.78006 28.7127 1.9836 28.8173C2.18714 28.922 2.43139 28.9743 2.71634 28.9743C2.92358 28.9743 3.13453 28.9407 3.34917 28.8734C3.56381 28.8061 3.76365 28.7015 3.95979 28.5594L4.55191 29.6547C4.32616 29.8266 4.05231 29.9687 3.73405 30.0808C3.41208 30.193 3.03461 30.2491 2.59792 30.2491L2.59422 30.2453Z" fill="var(--fill-0, #00774F)"/>
<path id="Vector_20" d="M7.33487 30.2453C6.86487 30.2453 6.47259 30.1519 6.15433 29.965C5.83607 29.778 5.59552 29.5201 5.43269 29.1912C5.26985 28.8622 5.18844 28.4847 5.18844 28.0548V25.1652H6.4874V28.1146C6.4874 28.4211 6.56141 28.6454 6.70944 28.7949C6.85747 28.9444 7.06841 29.0155 7.33857 29.0155C7.60872 29.0155 7.81596 28.9407 7.96399 28.7949C8.11202 28.6454 8.18604 28.4211 8.18604 28.1146V25.1652H9.4887V28.0548C9.4887 28.4809 9.40728 28.8585 9.24445 29.1874C9.08162 29.5164 8.84107 29.7743 8.5228 29.9612C8.20454 30.1481 7.80856 30.2416 7.34227 30.2416L7.33487 30.2453ZM6.90558 24.7465C6.81676 24.6007 6.79086 24.4811 6.82787 24.3839C6.86487 24.2867 6.96109 24.2157 7.12022 24.1708C7.20904 24.1409 7.27195 24.1185 7.30896 24.0998C7.34597 24.0811 7.36447 24.055 7.36447 24.0176C7.36447 23.9839 7.33857 23.9578 7.28306 23.9391C7.22755 23.9204 7.16093 23.9092 7.08322 23.9092C6.97219 23.9092 6.87227 23.9204 6.78346 23.9428C6.69464 23.9652 6.60582 23.9951 6.5244 24.04L6.34307 23.4269C6.46889 23.3597 6.62432 23.3073 6.80566 23.2699C6.987 23.2326 7.16463 23.2139 7.33857 23.2139C7.55321 23.2139 7.73825 23.24 7.89368 23.2886C8.04911 23.3372 8.17123 23.4083 8.26005 23.5017C8.34517 23.5952 8.38958 23.7073 8.38958 23.8381C8.38958 23.969 8.35997 24.0736 8.29706 24.1596C8.23415 24.2456 8.11572 24.3316 7.94549 24.4138C7.82707 24.4699 7.74935 24.5222 7.71234 24.5708C7.67533 24.6194 7.68274 24.6792 7.73085 24.7502H6.91298L6.90558 24.7465Z" fill="var(--fill-0, #00774F)"/>
<path id="Vector_21" d="M9.95499 30.1369L11.7721 25.1652H13.2894L15.1101 30.1369H13.652L13.3412 29.1874H11.6795L11.3724 30.1369H9.95129H9.95499ZM11.9682 28.1034H13.0562L12.5159 26.5371L11.9719 28.1034H11.9682Z" fill="var(--fill-0, #00774F)"/>
<path id="Vector_22" d="M18.104 30.1369V26.3576H16.8125V25.1652H20.6945V26.3576H19.403V30.1369H18.1003H18.104Z" fill="var(--fill-0, #00774F)"/>
<path id="Vector_23" d="M23.5441 30.2453C23.1629 30.2453 22.8114 30.178 22.4894 30.0472C22.1674 29.9164 21.8899 29.7332 21.6493 29.4977C21.4125 29.2622 21.2274 28.9893 21.0979 28.6753C20.9684 28.3613 20.9055 28.0211 20.9055 27.651C20.9055 27.281 20.9684 26.9408 21.0979 26.6231C21.2274 26.3091 21.4088 26.0324 21.6493 25.8007C21.8862 25.5652 22.1674 25.3857 22.4894 25.2549C22.8114 25.1241 23.1629 25.0605 23.5441 25.0605C23.9253 25.0605 24.2769 25.1278 24.5988 25.2586C24.9171 25.3895 25.1983 25.5764 25.4352 25.8119C25.672 26.0474 25.8571 26.324 25.9903 26.638C26.1198 26.952 26.1864 27.2884 26.1864 27.651C26.1864 28.0136 26.1198 28.3576 25.9903 28.6753C25.8608 28.993 25.6757 29.2659 25.4352 29.4977C25.1983 29.7332 24.9171 29.9164 24.5988 30.0472C24.2806 30.178 23.929 30.2453 23.5441 30.2453ZM21.8788 24.7465L22.9742 23.5054H24.1251L25.2205 24.7465H23.9697L23.5293 24.2344L23.0815 24.7465H21.8751H21.8788ZM23.5441 29.0192C23.7328 29.0192 23.9031 28.9856 24.0585 28.922C24.2139 28.8585 24.3509 28.765 24.4656 28.6454C24.5803 28.5258 24.6691 28.3837 24.732 28.2155C24.795 28.0473 24.8283 27.8604 24.8283 27.651C24.8283 27.3707 24.7728 27.1277 24.6617 26.9258C24.5507 26.724 24.399 26.5632 24.2065 26.4511C24.0141 26.339 23.7921 26.2829 23.5441 26.2829C23.3591 26.2829 23.1888 26.3165 23.0297 26.3801C22.8743 26.4436 22.7373 26.5371 22.6226 26.6567C22.5079 26.7763 22.4191 26.9184 22.3562 27.0866C22.2933 27.2548 22.2637 27.4417 22.2637 27.651C22.2637 27.9314 22.3192 28.1744 22.4302 28.3762C22.5412 28.5818 22.6929 28.7388 22.8854 28.851C23.0778 28.9631 23.2962 29.0192 23.5478 29.0192H23.5441Z" fill="var(--fill-0, #00774F)"/>
<path id="Vector_24" d="M26.9969 30.1369V25.1652H28.2403L30.0648 28.2454L29.5467 28.2529L31.2676 25.1652H32.5073V30.1369H31.2601L31.2861 26.8212L31.5118 26.9072L30.1758 29.2472H29.3284L27.9332 26.9072L28.1552 26.8212L28.1811 30.1369H26.9969Z" fill="var(--fill-0, #00774F)"/>
<path id="Vector_25" d="M37.5033 30.2453C36.9926 30.2453 36.5411 30.1406 36.1525 29.9313C35.764 29.722 35.4568 29.4229 35.2384 29.0416C35.0201 28.6566 34.9091 28.2006 34.9091 27.6735C34.9091 27.2884 34.972 26.9371 35.1015 26.6193C35.2273 26.3016 35.4087 26.025 35.6455 25.7932C35.8787 25.5614 36.1562 25.382 36.4745 25.2549C36.7928 25.1278 37.1443 25.0643 37.5218 25.0643C37.9474 25.0643 38.299 25.1166 38.5765 25.225C38.8578 25.3334 39.1131 25.4867 39.3463 25.6848L38.706 26.7576C38.5765 26.6193 38.4174 26.5146 38.2286 26.4436C38.0436 26.3726 37.8327 26.339 37.6032 26.339C37.3886 26.339 37.1998 26.3689 37.0333 26.4287C36.8668 26.4885 36.7261 26.5782 36.6114 26.6941C36.4967 26.81 36.4116 26.9483 36.3524 27.1128C36.2932 27.2735 36.2636 27.4567 36.2636 27.6585C36.2636 27.9314 36.3191 28.1669 36.4264 28.365C36.5337 28.5631 36.6891 28.7127 36.8927 28.8173C37.0962 28.922 37.3405 28.9743 37.6254 28.9743C37.8327 28.9743 38.0436 28.9407 38.2583 28.8734C38.4729 28.8061 38.6727 28.7015 38.8689 28.5594L39.461 29.6547C39.2352 29.8266 38.9614 29.9687 38.6431 30.0808C38.3212 30.193 37.9437 30.2491 37.507 30.2491L37.5033 30.2453Z" fill="var(--fill-0, #00774F)"/>
<path id="Vector_26" d="M39.5757 30.1369L41.3928 25.1652H42.9101L44.7308 30.1369H43.2728L42.9619 29.1874H41.3003L40.9931 30.1369H39.572H39.5757ZM41.4779 24.7465L42.1847 23.5054H43.5096L42.6843 24.7465H41.4779ZM41.5852 28.1034H42.6732L42.1329 26.5371L41.5889 28.1034H41.5852Z" fill="var(--fill-0, #00774F)"/>
<path id="Vector_27" d="M0.29976 38.6599V33.6881H2.27966C2.79036 33.6881 3.19744 33.7928 3.5009 34.0059C3.80436 34.219 3.95609 34.533 3.95609 34.9516C3.95609 35.0974 3.92648 35.2357 3.87097 35.3591C3.81546 35.4825 3.73405 35.5946 3.63413 35.6881C3.53421 35.7852 3.41948 35.8637 3.29366 35.9273C3.55641 36.0207 3.76735 36.1815 3.92649 36.402C4.08562 36.6226 4.16333 36.8843 4.16333 37.1796C4.16333 37.4749 4.08932 37.744 3.93759 37.9646C3.78586 38.1851 3.57491 38.3533 3.30106 38.4767C3.02721 38.5963 2.69784 38.6561 2.31296 38.6561H0.29976V38.6599ZM1.59502 35.6993H2.11312C2.23895 35.6993 2.34257 35.6768 2.43139 35.6357C2.5202 35.5946 2.58682 35.531 2.63493 35.4525C2.68304 35.3703 2.70524 35.2731 2.70524 35.161C2.70524 34.9928 2.65343 34.8657 2.54611 34.7722C2.43879 34.6788 2.28706 34.6376 2.09092 34.6376H1.59502V35.6993ZM1.59502 37.7141H2.13533C2.35737 37.7141 2.52761 37.6655 2.63863 37.5721C2.75335 37.4749 2.80886 37.3366 2.80886 37.1497C2.80886 36.9628 2.75705 36.8319 2.64973 36.731C2.54241 36.6301 2.39068 36.5815 2.18714 36.5815H1.59132V37.7141H1.59502Z" fill="var(--fill-0, #00774F)"/>
<path id="Vector_28" d="M4.9849 38.6599V33.6881H6.28016V38.6599H4.9849Z" fill="var(--fill-0, #00774F)"/>
<path id="Vector_29" d="M7.39778 38.6599V33.6881H10.9505V34.8171H8.68934V35.6021H10.5619V36.6375H8.68934V37.516H10.9764V38.6599H7.39408H7.39778ZM7.4829 33.2695L8.57832 32.0284H9.72925L10.8247 33.2695H9.57381L9.13343 32.7573L8.68564 33.2695H7.4792H7.4829ZM10.3991 32.1181C10.3103 31.9723 10.2844 31.8527 10.3214 31.7555C10.3584 31.6583 10.4546 31.5873 10.6137 31.5424C10.7025 31.5125 10.7655 31.4901 10.8025 31.4714C10.8395 31.4527 10.858 31.4266 10.858 31.3892C10.858 31.3555 10.8321 31.3294 10.7766 31.3107C10.721 31.292 10.6544 31.2808 10.5767 31.2808C10.4657 31.2808 10.3658 31.292 10.277 31.3144C10.1881 31.3369 10.0993 31.3668 10.0179 31.4116L9.83657 30.7986C9.96239 30.7313 10.1178 30.6789 10.2992 30.6416C10.4805 30.6042 10.6581 30.5855 10.8321 30.5855C11.0467 30.5855 11.2317 30.6117 11.3872 30.6603C11.5426 30.7088 11.6647 30.7799 11.7536 30.8733C11.8387 30.9668 11.8831 31.0789 11.8831 31.2098C11.8831 31.3406 11.8535 31.4453 11.7906 31.5312C11.7276 31.6172 11.6092 31.7032 11.439 31.7854C11.3206 31.8415 11.2428 31.8938 11.2058 31.9424C11.1688 31.991 11.1762 32.0508 11.2243 32.1219H10.4065L10.3991 32.1181Z" fill="var(--fill-0, #00774F)"/>
<path id="Vector_30" d="M11.9127 38.6599V33.6881H13.2005L15.0731 36.5478V33.6881H16.324V38.6599H15.0361L13.1635 35.7591V38.6599H11.9127Z" fill="var(--fill-0, #00774F)"/>
<path id="Vector_31" d="M19.0255 38.6599V33.6881H20.3208V35.6694L21.8677 33.6881H23.4849L21.6567 35.9871L23.7106 38.6599H22.0527L20.8093 36.9702L20.3245 37.516V38.6599H19.0292H19.0255Z" fill="var(--fill-0, #00774F)"/>
<path id="Vector_32" d="M24.2695 38.6599V33.6881H25.5647V35.4862H27.3596V33.6881H28.6548V38.6599H27.3596V36.6787H25.5647V38.6599H24.2695Z" fill="var(--fill-0, #00774F)"/>
<path id="Vector_33" d="M32.1002 38.7683C31.719 38.7683 31.3675 38.701 31.0455 38.5702C30.7235 38.4393 30.446 38.2562 30.2054 38.0207C29.9686 37.7851 29.7836 37.5123 29.654 37.1983C29.5245 36.8843 29.4616 36.5441 29.4616 36.174C29.4616 35.8039 29.5245 35.4638 29.654 35.146C29.7836 34.832 29.9649 34.5554 30.2054 34.3236C30.4423 34.0881 30.7235 33.9087 31.0455 33.7779C31.3675 33.647 31.719 33.5835 32.1002 33.5835C32.4814 33.5835 32.833 33.6508 33.1549 33.7816C33.4732 33.9124 33.7544 34.0993 33.9913 34.3348C34.2281 34.5703 34.4132 34.847 34.5464 35.161C34.6759 35.475 34.7425 35.8114 34.7425 36.174C34.7425 36.5366 34.6759 36.8805 34.5464 37.1983C34.4169 37.516 34.2318 37.7889 33.9913 38.0207C33.7544 38.2562 33.4732 38.4393 33.1549 38.5702C32.8367 38.701 32.4851 38.7683 32.1002 38.7683ZM32.1002 37.5422C32.289 37.5422 32.4592 37.5085 32.6146 37.445C32.7701 37.3814 32.907 37.288 33.0217 37.1684C33.1364 37.0487 33.2252 36.9067 33.2882 36.7385C33.3511 36.5703 33.3844 36.3833 33.3844 36.174C33.3844 35.8937 33.3289 35.6507 33.2178 35.4488C33.1068 35.247 32.9551 35.0862 32.7626 34.9741C32.5702 34.8619 32.3482 34.8059 32.1002 34.8059C31.9152 34.8059 31.7449 34.8395 31.5858 34.903C31.4304 34.9666 31.2935 35.06 31.1787 35.1797C31.064 35.2993 30.9752 35.4413 30.9123 35.6096C30.8494 35.7778 30.8198 35.9647 30.8198 36.174C30.8198 36.4544 30.8753 36.6973 30.9863 36.8992C31.0973 37.1048 31.249 37.2618 31.4415 37.374C31.6339 37.4861 31.8523 37.5422 32.1039 37.5422H32.1002ZM34.1726 34.7722C34.0098 34.7722 33.847 34.7498 33.6767 34.7012C33.5065 34.6526 33.3363 34.5965 33.1623 34.533C32.9884 34.4694 32.8108 34.4133 32.6331 34.3647C32.4555 34.3162 32.2779 34.2937 32.1039 34.2937L32.0965 33.5872C32.3223 33.5872 32.5258 33.6096 32.7145 33.6545C32.9033 33.6994 33.0698 33.748 33.2215 33.804C33.3733 33.8601 33.5065 33.9124 33.6286 33.9536C33.747 33.9984 33.8544 34.0208 33.9469 34.0208C34.0542 34.0208 34.1393 33.9947 34.1985 33.9461C34.2577 33.8975 34.2874 33.8302 34.2874 33.7517C34.2874 33.6844 34.2689 33.6022 34.2281 33.5125C34.1874 33.4227 34.1208 33.3255 34.0283 33.2246L34.7685 32.8097C34.9313 32.9629 35.0534 33.1274 35.1348 33.3106C35.2162 33.4938 35.2532 33.6657 35.2532 33.8339C35.2532 34.0134 35.2088 34.1704 35.1163 34.3162C35.0275 34.4582 34.9017 34.5741 34.7388 34.6563C34.576 34.7423 34.3873 34.7834 34.1726 34.7834V34.7722Z" fill="var(--fill-0, #00774F)"/>
<path id="Vector_34" d="M35.738 38.6599V33.6881H37.0333V38.6599H35.738Z" fill="var(--fill-0, #00774F)"/>
</g>
</svg>
