<svg preserveAspectRatio="none" width="100%" height="100%" overflow="visible" style="display: block;" viewBox="0 0 73.9975 42.8163" fill="none" xmlns="http://www.w3.org/2000/svg">
<g id="Group">
<path id="Vector" d="M47.3292 21.4303C47.1738 22.5517 46.8333 23.6246 46.689 24.7423C46.5558 25.7889 46.3966 26.8281 46.4558 27.8898C46.4855 28.3944 46.5706 28.8692 46.7741 29.329C47.0628 29.9831 47.2663 30.6672 47.4254 31.3625C47.4809 31.598 47.5365 31.856 47.2663 31.9718C46.9925 32.0915 46.7926 31.9045 46.6557 31.684C46.2338 31.0111 45.9377 30.2785 45.7194 29.5159C45.4751 28.6673 45.2605 27.8075 44.8719 27.0076C44.8571 26.9814 44.8571 26.944 44.8386 26.9216C43.869 25.7628 43.8209 24.1629 43.0105 22.9517C42.4183 22.0695 42.3221 21.0864 42.089 20.1182C41.6819 18.4136 41.2119 16.7277 40.5125 15.1128C40.2904 14.5969 40.2275 14.0362 40.0721 13.4979C40.0388 13.3858 40.0166 13.2176 40.1609 13.1727C40.3459 13.1129 40.5199 13.782 40.5717 13.9615C40.5976 14.0474 41.4969 15.853 41.8003 16.4137C42.3073 17.352 42.8217 18.294 42.9994 19.3706C43.0105 19.4453 43.0512 19.5163 43.0919 19.5836C43.1215 19.6322 43.177 19.6659 43.2991 19.778C43.3324 19.2621 43.3657 18.8248 43.3805 18.3874C43.436 16.8548 43.5212 15.3221 43.7395 13.8007C43.7691 13.5876 43.832 13.3783 43.906 13.1727C43.9541 13.0381 43.9949 12.84 44.1947 12.8699C44.3538 12.8961 44.3575 13.0718 44.3982 13.2026C44.5648 13.726 44.4537 14.253 44.4056 14.7726C44.302 15.8903 44.3723 17.0043 44.4426 18.1183C44.5241 19.4042 44.6499 20.6864 44.4389 21.9686C44.3353 22.604 44.5204 23.1984 44.6943 23.7928C44.8238 24.2376 44.9459 24.6862 45.0792 25.1348C45.1273 25.2918 45.1384 25.5123 45.3567 25.5086C45.6232 25.5048 45.5899 25.2469 45.6047 25.0824C45.675 24.4357 45.7194 23.7853 45.786 23.1386C45.9155 21.8452 46.0303 20.5443 46.4003 19.2883C46.4558 19.0977 46.4003 18.922 46.3448 18.7425C46.1672 18.1669 45.9896 17.5875 45.8193 17.008C45.7749 16.8623 45.7231 16.694 45.8785 16.5819C46.0377 16.4698 46.1783 16.5744 46.2967 16.6679C46.541 16.8623 46.7815 17.0417 47.0887 17.1314C47.2293 17.1725 47.3107 17.3034 47.3477 17.4417C47.5994 18.4136 48.1471 19.2547 48.5764 20.1443C49.4645 21.9947 49.8235 23.9573 49.9419 25.9908C50.0234 27.3365 50.1122 28.686 50.1048 30.0355C50.1011 30.9214 50.0308 31.7999 49.8161 32.6634C49.7458 32.955 49.62 33.2166 49.4831 33.4783C49.4164 33.6017 49.3424 33.74 49.1796 33.7213C49.0094 33.7026 48.9872 33.5381 48.9612 33.4035C48.828 32.7643 48.7762 32.1139 48.7429 31.4634C48.6578 29.6504 48.606 27.8374 48.5172 26.0244C48.4468 24.5404 48.1249 23.1087 47.555 21.7368C47.5106 21.6284 47.5032 21.4863 47.3181 21.4228L47.3292 21.4303Z" fill="var(--fill-0, #00A181)"/>
<path id="Vector_2" d="M10.0258 29.0972C9.91474 28.4206 9.90364 27.8561 9.88883 27.2954C9.84443 25.6693 10.0887 24.0245 9.77041 22.4209C9.37443 20.4284 10.1183 18.5594 10.2626 16.6305C10.3514 15.4754 10.5883 14.3278 10.8991 13.2026C10.9732 12.9297 11.0287 12.6382 11.2914 12.3765C11.4654 13.0942 11.3876 13.7559 11.358 14.41C11.2951 15.8081 10.9954 17.1763 10.7215 18.5444C10.4513 19.8976 10.1849 21.2396 10.2552 22.6414C10.3773 25.0675 10.4217 27.4935 10.8621 29.8934C10.9658 30.4504 10.9769 31.0373 10.8399 31.6055C10.7844 31.8298 10.6882 32.0092 10.4476 32.0765C10.2034 32.1438 10.0332 32.0204 9.87773 31.856C9.7038 31.6728 9.60388 31.4448 9.50396 31.2167C9.08577 30.2598 8.82672 29.2542 8.57877 28.2449C8.46035 27.7552 8.36043 27.7403 7.99036 28.0767C7.67209 28.3645 7.54997 28.7084 7.53146 29.1458C7.49076 30.2299 7.50556 31.3177 7.25761 32.383C7.17989 32.7157 7.10958 33.0522 6.93564 33.3475C6.82092 33.5419 6.66549 33.6989 6.41754 33.669C6.16219 33.639 6.06227 33.4447 6.01046 33.2241C5.90314 32.7793 5.90684 32.3307 5.96605 31.8821C6.05117 31.2504 6.18439 30.6186 6.45085 30.043C6.86533 29.157 6.90234 28.2524 6.7173 27.3216C6.46565 26.0544 6.36203 24.7722 6.39534 23.4825C6.40274 23.1423 6.32502 22.847 6.11408 22.5741C5.80692 22.1742 5.65519 21.7032 5.59228 21.2022C5.43684 20.0135 5.01126 18.8883 4.75591 17.722C4.63378 17.1613 4.50426 16.6043 4.39694 16.0399C4.37473 15.9165 4.31182 15.7296 4.48205 15.6735C4.60788 15.6287 4.693 15.7819 4.76331 15.8791C5.28882 16.5782 5.66629 17.3557 5.92164 18.193C6.1992 19.1126 6.47675 20.0322 6.76541 20.9481C6.81722 21.1088 6.80982 21.3817 7.05037 21.363C7.25761 21.348 7.27241 21.0938 7.33532 20.9219C7.50186 20.4546 7.42784 19.9687 7.42414 19.4902C7.40934 17.6847 7.54627 15.8978 7.96445 14.1372C8.01626 13.9129 8.10878 13.6961 8.1939 13.4792C8.2272 13.3933 8.27901 13.2886 8.38633 13.311C8.48996 13.3335 8.49736 13.4493 8.50846 13.5391C8.64909 14.8661 8.6935 16.1969 8.66019 17.5351C8.60838 19.5948 8.205 21.6209 8.09768 23.6769C8.01256 25.303 8.61948 26.7085 9.36703 28.0804C9.53726 28.3944 9.64089 28.7608 10.0406 29.0972H10.0258Z" fill="var(--fill-0, #00A181)"/>
<path id="Vector_3" d="M61.392 27.4823C60.8406 29.1421 60.589 30.813 59.8525 32.3307C59.76 32.5213 59.723 32.8802 59.4417 32.7942C59.1975 32.7232 59.2752 32.383 59.2937 32.1662C59.4603 30.2149 59.8599 28.3047 60.3003 26.402C60.6038 25.0974 60.9924 23.8264 61.566 22.619C61.6844 22.3685 61.8546 22.148 62.0138 21.9162C62.0767 21.8265 62.1655 21.748 62.2876 21.7929C62.4134 21.8415 62.4282 21.9686 62.3986 22.0695C61.9953 23.4526 62.6022 24.7647 62.6651 26.1142C62.7243 27.3851 62.7909 28.6524 62.6725 29.9233C62.5023 31.7438 62.3246 33.5605 62.506 35.3922C62.5652 36.0053 62.5837 36.6333 62.469 37.2464C62.4356 37.4295 62.406 37.6164 62.3431 37.7884C62.2395 38.065 62.11 38.4164 61.7954 38.4089C61.4401 38.3977 61.2847 38.0463 61.2107 37.7174C60.9591 36.6445 61.0553 35.5642 61.1367 34.4801C61.2588 32.7942 61.64 31.1382 61.6252 29.4411C61.6178 28.8056 61.5068 28.1776 61.3994 27.4786L61.392 27.4823Z" fill="var(--fill-0, #00A181)"/>
<path id="Vector_4" d="M69.9185 23.3479C70.111 24.3273 70.2294 25.3105 70.2479 26.3011C70.2627 27.1683 70.2479 28.0356 70.2368 28.9028C70.2294 29.542 70.1776 30.1738 69.9481 30.7794C69.8556 31.0186 69.8667 31.2691 69.8667 31.5158C69.8741 32.7867 69.3338 33.8185 68.5049 34.7231C68.4642 34.768 68.4197 34.8128 68.3753 34.8539C67.7092 35.467 67.3909 36.166 67.5686 37.123C67.7388 38.0351 67.6907 38.9771 67.5723 39.9042C67.5538 40.0574 67.5316 40.2107 67.4872 40.3602C67.4427 40.5172 67.3391 40.6406 67.1689 40.6593C66.9765 40.6817 66.8506 40.5658 66.7729 40.4013C66.5768 39.9976 66.5731 39.5565 66.5731 39.1266C66.5731 38.4127 66.6693 37.7024 66.8173 37.0034C66.9431 36.4127 66.9283 35.8408 66.7729 35.2577C66.4509 34.0428 66.1993 32.8167 66.1031 31.5569C66.055 30.9214 66.1327 30.3158 66.4028 29.7439C66.6249 29.2654 66.6952 28.7757 66.6397 28.2524C66.4806 26.7235 66.3732 25.1946 66.5657 23.6582C66.6101 23.2881 66.6915 22.9255 66.7729 22.5629C66.7951 22.4545 66.7914 22.2788 66.9579 22.29C67.0764 22.2975 67.1023 22.4358 67.1208 22.5442C67.3761 23.9498 67.6167 25.3665 67.576 26.7945C67.5205 28.6673 67.6019 30.5401 67.5427 32.4129C67.5279 32.8391 67.6611 33.269 67.7314 33.6989C67.761 33.8783 67.8424 33.9568 68.0053 33.8035C68.3901 33.4372 68.7047 33.0409 68.7602 32.469C68.8786 31.2653 69.1266 30.0878 69.43 28.914C69.8334 27.3627 69.789 25.7478 69.7668 24.1516C69.7631 23.8788 69.715 23.6021 69.9185 23.3554V23.3479Z" fill="var(--fill-0, #00A181)"/>
<path id="Vector_5" d="M0.0485621 22.5592C0.0707665 21.8788 0.0929709 21.1948 0.122577 20.5144C0.126278 20.3873 0.0929709 20.1967 0.28911 20.1892C0.43714 20.1892 0.455643 20.3574 0.481549 20.4733C0.866426 22.4022 1.35492 24.3273 1.36603 26.3011C1.37713 27.8935 1.57697 29.4785 1.45114 31.0747C1.38823 31.8447 1.65838 32.6036 1.77311 33.3699C2.02476 35.0483 2.15058 36.7268 1.7398 38.4014C1.62138 38.8837 1.46595 39.3547 1.21059 39.7846C1.09957 39.9752 0.93674 40.1584 0.699892 40.1247C0.44084 40.0911 0.459344 39.8294 0.433439 39.6425C0.252103 38.3042 0.192891 36.9585 0.159584 35.6128C0.0929709 32.8578 0.0152554 30.1028 0.000452444 27.344C-0.00694904 25.7478 0.0966717 24.1554 0.152183 22.5592H0.0485621Z" fill="var(--fill-0, #00A181)"/>
<path id="Vector_6" d="M36.623 24.4432C36.6119 24.6339 36.6526 24.8133 36.4675 24.8806C36.2973 24.9404 36.1715 24.8208 36.0642 24.7124C35.5572 24.1928 35.2574 23.5423 34.9873 22.8844C34.4988 21.7032 34.2064 20.4733 34.1583 19.1836C34.1102 17.8417 33.6735 16.5669 33.4255 15.2586C33.3256 14.739 33.1924 14.2306 33.037 13.7297C32.6595 12.5185 32.7076 11.2438 32.5189 10.0065C32.43 9.43083 32.3079 8.8888 32.6854 8.31313C32.8889 8.00286 32.7853 7.49821 32.8556 7.08701C32.9111 6.75806 32.937 6.25341 33.259 6.23472C33.5144 6.2235 33.4699 6.75058 33.4996 7.03842C33.5921 7.96174 33.655 8.89254 33.7105 9.8196C33.7697 10.7653 33.9029 11.6961 34.0621 12.6307C34.7319 16.4959 35.9087 20.249 36.5675 24.118C36.5897 24.2414 36.6119 24.361 36.6267 24.447L36.623 24.4432Z" fill="var(--fill-0, #00774F)"/>
<path id="Vector_7" d="M30.6611 2.27229C30.9053 4.22734 31.6455 6.05529 31.4493 8.01034C31.3272 9.21402 31.2606 10.4177 31.1829 11.6214C31.0682 13.3783 31.5604 15.0605 31.7898 16.7763C32.0082 18.4173 32.5744 19.9612 32.9111 21.5648C32.9629 21.8078 32.9926 22.0545 32.9555 22.305C32.9333 22.4545 32.8482 22.5667 32.6928 22.5891C32.5226 22.6153 32.4337 22.4956 32.3967 22.3573C32.3338 22.1181 32.2931 21.8751 32.2524 21.6284C31.8712 19.4864 31.194 17.423 30.6426 15.3296C30.254 13.8568 30.0801 12.3466 29.9542 10.8364C29.7285 8.11874 29.9616 5.42354 30.4427 2.74703C30.4686 2.60498 30.4501 2.43303 30.6759 2.27603L30.6611 2.27229Z" fill="var(--fill-0, #00A181)"/>
<path id="Vector_8" d="M24.1774 12.1746C24.2551 13.6736 24.0664 15.3072 23.8702 16.9408C23.7629 17.8417 23.811 18.7351 23.8554 19.6322C23.8961 20.4098 23.8924 21.1873 23.7222 21.9461C23.6371 22.3349 23.5631 22.8657 23.0968 22.8657C22.5935 22.8657 22.5232 22.3125 22.4676 21.9125C22.3344 20.9406 22.3788 19.9649 22.4862 18.9893C22.6971 17.0492 23.1449 15.124 22.9561 13.1578C22.8266 11.812 22.8192 10.4626 22.7859 9.11309C22.7711 8.53368 22.8636 7.96922 23.0117 7.41223C23.045 7.2814 23.0413 7.10197 23.2226 7.09449C23.3743 7.08702 23.3928 7.25149 23.4446 7.3599C23.811 8.11127 23.8813 8.9374 24.022 9.74484C24.1552 10.4962 24.1478 11.2588 24.17 12.1709L24.1774 12.1746Z" fill="var(--fill-0, #87CA9B)"/>
<path id="Vector_9" d="M56.2924 33.9493C56.2924 34.2745 56.2628 34.5512 56.1703 34.8166C56.0741 35.082 55.8668 35.2053 55.5967 35.1979C55.3376 35.1904 55.2155 35.0035 55.1896 34.768C54.9009 32.1064 53.8832 29.6019 53.528 26.9552C53.5058 26.7908 53.4576 26.6151 53.3762 26.4693C52.3585 24.6488 51.8996 22.634 51.3408 20.6527C51.1188 19.864 50.9337 19.0603 50.7376 18.2641C50.7006 18.122 50.6081 17.9351 50.7968 17.8529C50.9819 17.7744 51.0522 17.9762 51.141 18.0921C51.574 18.6528 51.8108 19.307 52.0255 19.9724C52.2845 20.7836 52.5029 21.6097 52.9469 22.3461C53.0395 22.4994 53.0802 22.7012 53.0876 22.8807C53.1172 23.6283 53.3688 24.3161 53.7093 24.9591C54.1645 25.8301 54.4865 26.7347 54.6826 27.7029C54.9527 29.0598 55.4857 30.3383 55.8742 31.6616C56.0963 32.4241 56.2184 33.2017 56.2998 33.9456L56.2924 33.9493Z" fill="var(--fill-0, #00774F)"/>
<path id="Vector_10" d="M55.6078 21.1536C55.778 21.6546 55.9742 22.1443 56.1185 22.6526C57.0363 25.8712 57.8208 29.1271 58.6387 32.3718C59.031 33.9344 59.3233 35.5193 59.6601 37.0968C59.7045 37.3024 59.723 37.5267 59.5047 37.6276C59.2937 37.7248 59.1679 37.5379 59.0532 37.3921C58.0355 36.1062 57.5618 34.596 57.2694 33.0073C57.1769 32.5176 57.1547 32.0204 57.114 31.527C56.9623 29.6916 56.3701 27.9533 55.9779 26.1702C55.63 24.589 55.4672 22.9891 55.4561 21.3742C55.4561 21.3032 55.4449 21.2135 55.6078 21.1536Z" fill="var(--fill-0, #87CA9B)"/>
<path id="Vector_11" d="M42.4109 27.5421C42.3628 26.3011 41.8595 25.2507 41.3747 24.1965C41.0972 23.5909 40.8344 22.9816 40.7012 22.3199C40.6494 22.0545 40.5014 21.834 40.3866 21.5985C39.2542 19.3107 38.4734 16.8959 37.9256 14.41C37.711 13.4306 37.6 12.4251 37.5778 11.412C37.5778 11.2737 37.5223 11.0943 37.7036 11.0607C37.9404 11.0195 37.8997 11.2476 37.933 11.3821C38.0589 11.9279 37.9812 12.4961 38.1218 13.0419C38.1625 13.1951 38.1699 13.3708 38.366 13.3895C38.7546 13.4232 38.8027 13.6998 38.7805 13.9876C38.725 14.7577 38.9841 15.438 39.2912 16.1258C39.9129 17.5276 40.4532 18.9631 40.8936 20.4359C41.0861 21.0864 41.4561 21.6321 41.7559 22.2228C42.2444 23.1872 42.6182 24.2152 42.9327 25.2507C43.3028 26.4656 43.7173 27.6692 43.9838 28.914C44.0171 29.0748 44.1429 29.2692 43.9838 29.3925C43.8098 29.5271 43.6322 29.3626 43.4842 29.2692C42.8328 28.8617 42.2518 28.4056 42.422 27.5421H42.4109Z" fill="var(--fill-0, #87CA9B)"/>
<path id="Vector_12" d="M16.8647 23.2807C16.8721 23.019 16.8758 22.7536 16.8906 22.4919C16.9461 21.4527 16.9128 20.421 16.7463 19.3892C16.6094 18.5257 16.8906 17.6622 16.9128 16.795C16.9165 16.5931 16.9795 16.38 16.935 16.1931C16.6057 14.8399 17.0054 13.4792 16.8721 12.126C16.824 11.6326 16.9054 11.1317 17.0905 10.6644C17.1534 10.5074 17.2311 10.3093 17.4198 10.313C17.653 10.3168 17.6271 10.5672 17.6419 10.713C17.8158 12.612 18.0157 14.5072 17.9305 16.4212C17.8972 17.1837 17.8047 17.9276 17.6752 18.679C17.5494 19.4005 17.8676 20.1107 17.9268 20.8359C18.012 21.9013 18.1563 22.9629 18.2303 24.0283C18.2821 24.8357 18.4079 25.6282 18.5412 26.4244C18.5856 26.6898 18.7114 27.0263 18.3968 27.1795C18.0527 27.344 17.7677 27.1235 17.5753 26.8394C17.1312 26.1889 17.0276 25.4301 16.9572 24.6712C16.9165 24.2077 16.9313 23.7404 16.9202 23.2769C16.9017 23.2769 16.8832 23.2769 16.8684 23.2769L16.8647 23.2807Z" fill="var(--fill-0, #00774F)"/>
<path id="Vector_13" d="M19.5922 23.946C19.5071 23.004 19.7772 22.0396 19.9697 21.0677C20.1325 20.2415 20.2361 19.4117 20.0326 18.5781C19.8845 17.9837 20.0326 17.408 20.0955 16.8249C20.2324 15.4754 20.0881 14.1297 20.114 12.7802C20.1325 11.9616 20.0918 11.1354 20.3064 10.3317C20.3619 10.1186 20.4285 9.91679 20.547 9.72988C20.6136 9.62895 20.6728 9.4869 20.8171 9.51307C20.9726 9.54298 20.954 9.69998 20.9652 9.81586C21.0577 10.8812 21.165 11.9429 21.2242 13.0082C21.2649 13.6886 21.3167 14.3689 21.4314 15.0418C21.4907 15.3969 21.461 15.7371 21.3611 16.0922C21.1243 16.9445 20.9503 17.8117 21.1465 18.7052C21.2279 19.0715 21.1243 19.4154 20.98 19.7444C20.7246 20.3238 20.658 20.9294 20.6691 21.5611C20.6913 22.5816 20.806 23.6059 20.6506 24.6264C20.5951 24.9927 20.6247 25.5235 20.1066 25.5011C19.5737 25.4787 19.6366 24.9479 19.6033 24.5554C19.5885 24.3685 19.5922 24.1853 19.5885 23.9348L19.5922 23.946Z" fill="var(--fill-0, #00A181)"/>
<path id="Vector_14" d="M36.66 8.32434C36.7044 9.04954 36.6452 9.75231 36.4675 10.4364C36.1678 11.599 36.4342 12.7129 36.6748 13.8306C36.9116 14.9371 37.463 15.9651 37.6 17.0865C37.8479 19.1238 38.5252 21.0303 39.1876 22.948C39.6243 24.2077 39.8722 25.5198 40.0573 26.8431C40.0684 26.9328 40.0721 27.03 40.0573 27.1197C40.0351 27.258 40.0166 27.4225 39.8537 27.4524C39.6761 27.4823 39.6391 27.3066 39.5836 27.1833C39.1284 26.1889 38.9211 25.1236 38.7176 24.0582C38.54 23.1461 38.403 22.2265 38.2328 21.3144C38.1366 20.791 37.9441 20.3051 37.6481 19.8603C37.563 19.7332 37.4741 19.5911 37.4519 19.4453C37.13 17.3557 36.2344 15.4904 35.2759 13.6475C35.1575 13.4194 34.7615 13.1353 35.2833 12.8737C35.3758 12.8251 35.2981 12.6382 35.2685 12.5223C35.0021 11.4756 35.2611 10.4999 35.6571 9.5355C35.8643 9.03085 36.3047 8.72806 36.6674 8.32434H36.66Z" fill="var(--fill-0, #00A181)"/>
<path id="Vector_15" d="M4.51906 25.2058C4.54127 27.4861 4.58197 29.4262 4.36363 31.3513C4.30442 31.856 4.18229 32.3569 4.07127 32.854C4.00466 33.1531 3.86773 33.4559 3.51986 33.4484C3.12758 33.4409 3.04617 33.0783 3.00546 32.7793C2.91664 32.1139 2.96475 31.4485 3.09058 30.7906C3.209 30.1813 3.34223 29.5757 3.55317 28.9925C3.84183 28.2 3.86773 27.3926 3.7271 26.5665C3.46435 25.0376 3.28301 23.5012 3.31632 21.9461C3.33112 21.2882 3.47175 20.6565 3.7049 20.0434C3.75671 19.9051 3.81222 19.7182 4.00466 19.7444C4.17119 19.7668 4.17119 19.9537 4.1934 20.0845C4.24521 20.3724 4.30442 20.6677 4.31182 20.9593C4.34513 22.4919 4.55237 24.0171 4.51906 25.2095V25.2058Z" fill="var(--fill-0, #00774F)"/>
<path id="Vector_16" d="M29.9691 19.7182C29.9765 20.107 29.9876 20.492 29.9913 20.8808C29.9913 21.0527 29.9913 21.2434 29.7877 21.3032C29.5583 21.3742 29.4509 21.2022 29.3658 21.034C28.9624 20.2415 28.8662 19.3706 28.8292 18.507C28.7811 17.4155 28.3703 16.3913 28.3 15.3072C28.3 15.2623 28.2889 15.21 28.263 15.1726C27.4636 14.0362 27.7227 12.6681 27.4673 11.4158C27.2601 10.4027 27.0936 9.3785 26.9122 8.35798C26.8863 8.21967 26.7531 8.02155 26.964 7.958C27.1306 7.90941 27.1417 8.12996 27.212 8.2421C28.1409 9.72614 28.4814 11.4233 28.9513 13.0755C29.5657 15.2436 29.821 17.4753 29.9653 19.7219L29.9691 19.7182Z" fill="var(--fill-0, #00A181)"/>
<path id="Vector_17" d="M64.9966 21.4303C65.1335 21.5723 65.0817 21.7518 65.0891 21.9125C65.1631 23.7218 64.9114 25.5011 64.6154 27.2767C64.434 28.3757 64.2527 29.4785 64.1824 30.5962C64.1565 30.9887 64.249 31.3663 64.2712 31.755C64.3156 32.54 64.4044 33.3176 64.3378 34.1175C64.2416 35.239 64.5821 36.3305 64.719 37.437C64.8226 38.2669 64.9077 39.1005 64.9966 39.9303C65.0299 40.2443 64.9818 40.5509 64.8189 40.8275C64.7042 41.0256 64.5858 41.0256 64.497 40.8163C64.3711 40.5172 64.2934 40.1995 64.2416 39.878C63.9233 37.9603 63.8826 36.024 63.8752 34.0839C63.8715 33.0746 63.8123 32.0653 63.6051 31.0784C63.4607 30.3906 63.5311 29.7289 63.631 29.0486C63.9196 27.116 64.1676 25.1796 64.4488 23.247C64.5192 22.7573 64.6487 22.2751 64.7634 21.7929C64.7967 21.6508 64.7893 21.4751 64.9966 21.4303Z" fill="var(--fill-0, #00774F)"/>
<path id="Vector_18" d="M14.8219 16.9221C15.0403 17.0716 15.081 17.2959 15.1291 17.5015C15.6731 19.9275 16.1283 22.3611 15.7841 24.8694C15.6916 25.546 15.8433 26.23 15.7212 26.9104C15.5325 27.9683 14.9774 28.7981 14.2668 29.5533C14.2039 29.6205 14.1262 29.6729 14.0485 29.7252C13.8375 29.8673 13.5896 30.0056 13.3712 29.8187C13.1751 29.6504 13.3342 29.4075 13.4156 29.2168C13.5193 28.9776 13.6266 28.7122 13.8042 28.5327C14.5481 27.7814 14.8071 26.8356 14.7146 25.8488C14.5888 24.5105 15.0921 23.2545 15.0699 21.9312C15.044 20.3537 15.2216 18.7687 14.7701 17.2174C14.7442 17.1314 14.722 17.0342 14.8182 16.9221H14.8219Z" fill="var(--fill-0, #00A181)"/>
<path id="Vector_19" d="M12.9049 24.3759C12.953 24.6114 12.9123 24.8694 12.7976 25.1422C12.6644 25.4488 12.7421 25.7815 12.7865 26.1029C12.8642 26.6599 12.8864 27.2132 12.7717 27.7664C12.731 27.9533 12.6681 28.1253 12.5275 28.2561C12.2721 28.4991 12.0279 28.4318 11.9612 28.0842C11.8946 27.7365 11.8428 27.3777 11.8391 27.0263C11.8095 24.6264 11.8798 22.234 12.5016 19.8902C12.6866 19.1986 12.9382 18.5369 13.2047 17.879C13.238 17.7968 13.2676 17.6734 13.3749 17.6884C13.5156 17.7071 13.5008 17.8529 13.4934 17.9538C13.4489 18.5257 13.4008 19.0939 13.3342 19.6621C13.2417 20.4658 13.2824 21.2695 13.3083 22.077C13.3194 22.4732 13.2639 22.847 13.0752 23.1984C12.8827 23.5535 12.8753 23.9386 12.9086 24.3797L12.9049 24.3759Z" fill="var(--fill-0, #87CA9B)"/>
<path id="Vector_20" d="M26.013 9.96165C26.1943 10.8438 26.1684 11.6961 26.2091 12.5447C26.3312 15.2549 26.4533 17.9687 26.5681 20.6789C26.5829 20.9892 26.5681 21.2994 26.5459 21.606C26.5385 21.7218 26.4978 21.8676 26.3386 21.8714C26.2128 21.8714 26.1647 21.7518 26.124 21.6546C25.95 21.2508 25.8834 20.821 25.8242 20.3911C25.5541 18.4211 25.3394 16.4473 25.4171 14.4586C25.4689 13.1129 25.4838 11.7597 25.7687 10.4327C25.802 10.2757 25.7798 10.085 26.0167 9.96165H26.013Z" fill="var(--fill-0, #00774F)"/>
<path id="Vector_21" d="M71.632 24.6974C71.9688 25.0787 71.9651 25.5385 72.0724 25.9609C72.3351 26.9814 72.4906 28.0281 72.8273 29.0299C72.8754 29.172 72.9235 29.3514 72.8828 29.486C72.5128 30.7308 72.8717 31.9718 72.8828 33.2092C72.8828 33.4895 72.9309 33.7661 72.9383 34.0428C72.9383 34.2259 72.9161 34.4166 72.8791 34.596C72.8236 34.8502 72.6534 35.0259 72.3906 34.9997C72.1464 34.9773 72.1723 34.7306 72.1538 34.5549C71.9688 32.7045 71.7985 30.8504 71.6024 29C71.4655 27.7141 71.5025 26.4319 71.5839 25.146C71.595 24.9965 71.6172 24.8469 71.6357 24.6937L71.632 24.6974Z" fill="var(--fill-0, #00A181)"/>
<path id="Vector_22" d="M53.0284 33.3849C53.0358 33.7549 53.0691 34.1287 53.0432 34.4988C53.0284 34.7156 53.0062 35.0521 52.7434 35.0595C52.4585 35.0708 52.4621 34.7268 52.4325 34.5138C52.303 33.6278 52.1957 32.7344 52.081 31.8447C51.8293 29.8972 51.5777 27.9459 51.3297 25.9983C51.289 25.6768 51.2594 25.3516 51.2261 25.0301C51.215 24.9217 51.178 24.7871 51.3223 24.761C51.4518 24.7348 51.4926 24.8731 51.5333 24.9703C51.7812 25.5534 51.9885 26.159 52.1328 26.7758C52.6472 28.9477 52.9432 31.1532 53.0321 33.3849H53.0284Z" fill="var(--fill-0, #00A181)"/>
<path id="Vector_23" d="M29.055 7.19542C29.0772 7.54307 29.0254 7.8795 28.9439 8.2122C28.918 8.3206 28.8773 8.43275 28.7515 8.44396C28.6368 8.45518 28.6146 8.35051 28.5776 8.26079C27.9966 6.87394 27.6339 5.41607 27.1713 3.98809C27.138 3.88716 27.0899 3.76754 27.2157 3.69652C27.3156 3.64045 27.3933 3.71895 27.4525 3.78624C28.3407 4.75068 28.9921 5.83474 29.0587 7.19168L29.055 7.19542Z" fill="var(--fill-0, #00A181)"/>
<path id="Vector_24" d="M70.6957 35.8109C70.7031 36.8501 70.7216 37.8071 70.7068 38.7603C70.6994 39.2687 70.8289 39.7808 70.6994 40.2892C70.6735 40.3864 70.692 40.5284 70.5551 40.5509C70.4514 40.5696 70.3959 40.4724 70.3441 40.3976C69.5596 39.2201 69.6336 36.9137 70.6957 35.8072V35.8109Z" fill="var(--fill-0, #00774F)"/>
<path id="Vector_25" d="M71.9243 42.8162C71.8577 41.7807 71.7837 40.8275 71.743 39.8705C71.7208 39.3621 71.5617 38.8575 71.6616 38.3454C71.6801 38.2444 71.6579 38.1061 71.7911 38.0725C71.8947 38.0463 71.954 38.1398 72.0095 38.2145C72.8606 39.3435 72.9198 41.6536 71.9243 42.8162Z" fill="var(--fill-0, #00774F)"/>
<path id="Vector_26" d="M13.349 12.7615C12.6348 12.7466 12.0057 11.9578 12.15 11.2513C12.1944 11.027 12.2943 10.8401 12.546 10.8027C12.7828 10.7653 13.0012 10.7728 13.1566 11.0009C13.4304 11.3971 13.634 11.827 13.7302 12.3017C13.8116 12.698 13.745 12.769 13.3453 12.7615H13.349Z" fill="var(--fill-0, #00A181)"/>
<path id="Vector_27" d="M15.0699 9.83829C15.0699 10.1336 15.0218 10.3953 14.7479 10.5261C14.4555 10.6682 14.2187 10.5373 14.0041 10.328C13.3823 9.72241 13.46 8.93366 14.1706 8.62713C14.4407 8.51125 14.648 8.55984 14.7812 8.83647C14.9366 9.15795 15.0218 9.50185 15.0662 9.83829H15.0699Z" fill="var(--fill-0, #00A181)"/>
<path id="Vector_28" d="M23.4483 1.14337C23.4668 0.971413 23.4854 0.754601 23.5187 0.541527C23.6075 -0.0715288 23.7814 -0.142554 24.281 0.220046C24.7251 0.545265 24.8213 1.31158 24.4512 1.69661C24.2625 1.891 24.0183 2.04426 23.7518 1.94707C23.4076 1.81997 23.4965 1.46485 23.4483 1.14337Z" fill="var(--fill-0, #00A181)"/>
<path id="Vector_29" d="M16.1653 13.0269C16.1653 13.1353 16.1764 13.2437 16.169 13.3521C16.1579 13.5428 16.243 13.7895 15.9951 13.8792C15.7619 13.9652 15.5436 13.868 15.3585 13.711C14.8478 13.2774 14.9218 12.44 15.4881 12.1971C15.9136 12.0176 16.132 12.1485 16.1542 12.6083C16.1616 12.7466 16.1616 12.8886 16.1653 13.0269Z" fill="var(--fill-0, #00A181)"/>
<path id="Vector_30" d="M54.183 20.806C54.183 20.9144 54.1941 21.0228 54.1867 21.1312C54.1756 21.3219 54.2607 21.5686 54.0128 21.6583C53.7796 21.7443 53.5613 21.6471 53.3762 21.4901C52.8655 21.0565 52.9395 20.2191 53.5058 19.9761C53.9313 19.7967 54.1497 19.9275 54.1719 20.3873C54.1793 20.5256 54.1793 20.6677 54.183 20.806Z" fill="var(--fill-0, #00A181)"/>
<path id="Vector_31" d="M73.7636 35.7586C73.7932 35.8296 73.8339 35.9006 73.8487 35.9754C73.8894 36.1735 74.1226 36.3903 73.9079 36.5698C73.7081 36.7342 73.4379 36.6632 73.2011 36.5772C72.8125 36.4314 72.5572 35.9193 72.6645 35.5081C72.7348 35.2464 72.9087 35.0857 73.1789 35.0446C73.4601 35.0035 73.5453 35.2091 73.6267 35.4147C73.6748 35.5305 73.7192 35.6427 73.7673 35.7586H73.7599H73.7636Z" fill="var(--fill-0, #00A181)"/>
<path id="Vector_32" d="M24.6474 4.55255C24.6326 4.74694 24.64 5.01235 24.3772 5.10206C24.1441 5.18056 24.0331 4.95627 23.9072 4.80675C23.7 4.56003 23.4817 4.31705 23.2818 4.06286C23.0524 3.76754 23.1523 3.53952 23.5224 3.49092C24.1034 3.41242 24.6215 3.88343 24.6474 4.55255Z" fill="var(--fill-0, #00A181)"/>
<path id="Vector_33" d="M48.3617 15.2137C48.3543 15.0418 48.3395 14.825 48.3395 14.6082C48.3358 13.9876 48.495 13.8904 49.0464 14.1745C49.5349 14.4287 49.7421 15.1726 49.4349 15.6062C49.2795 15.8268 49.0575 16.0174 48.7836 15.9614C48.4246 15.8866 48.4579 15.524 48.3617 15.2137Z" fill="var(--fill-0, #00A181)"/>
<path id="Vector_34" d="M50.0567 18.4024C50.0715 18.5968 50.1196 18.8584 49.8716 18.9855C49.6533 19.1014 49.509 18.8958 49.3609 18.765C49.1167 18.5519 48.865 18.3463 48.6319 18.1258C48.358 17.8678 48.4246 17.6286 48.7836 17.5239C49.3461 17.3594 49.9271 17.7445 50.0567 18.4024Z" fill="var(--fill-0, #00A181)"/>
<path id="Vector_35" d="M26.7272 6.4291C26.7346 6.68703 26.7272 6.87394 26.631 7.03842C26.4422 7.34495 26.1351 7.40102 25.8279 7.33747C25.506 7.27018 25.6133 6.97487 25.6096 6.7618C25.6059 6.5076 25.7169 6.28331 25.8538 6.07398C25.9686 5.89829 26.0648 5.65157 26.3238 5.70764C26.5977 5.76745 26.6828 6.01417 26.7198 6.2721C26.7309 6.34686 26.7309 6.42536 26.7309 6.4291H26.7272Z" fill="var(--fill-0, #00A181)"/>
<path id="Vector_36" d="M1.62508 18.6491C1.66949 18.8995 1.55107 19.0117 1.32162 18.9668C0.966351 18.8995 0.659189 18.7351 0.466751 18.4061C0.322422 18.1594 0.374232 17.9164 0.566671 17.7332C0.773912 17.5389 1.04037 17.4641 1.32902 17.5239C1.42894 17.5463 1.46225 17.6435 1.47705 17.737C1.52886 18.0398 1.57697 18.3426 1.62508 18.6454V18.6491Z" fill="var(--fill-0, #00A181)"/>
<path id="Vector_37" d="M58.6757 23.4526C58.7201 23.7031 58.6017 23.8152 58.3722 23.7703C58.017 23.7031 57.7098 23.5386 57.5174 23.2096C57.373 22.9629 57.4248 22.7199 57.6173 22.5368C57.8245 22.3424 58.091 22.2676 58.3796 22.3274C58.4796 22.3499 58.5129 22.447 58.5277 22.5405C58.5795 22.8433 58.6276 23.1461 58.6757 23.4489V23.4526Z" fill="var(--fill-0, #00A181)"/>
</g>
</svg>
